<?xml version="1.0" encoding="UTF-8" standalone="no"?>
<!-- Creator: CorelDRAW 2017 -->

<svg
   xml:space="preserve"
   width="537.01447"
   height="642.5802"
   version="1.1"
   style="clip-rule:evenodd;fill-rule:evenodd;image-rendering:optimizeQuality;shape-rendering:geometricPrecision;text-rendering:geometricPrecision"
   viewBox="0 0 14208.508 17001.602"
   id="svg1154"
   sodipodi:docname="Licensly.svg"
   inkscape:version="1.1.1 (3bf5ae0d25, 2021-09-20)"
   xmlns:inkscape="http://www.inkscape.org/namespaces/inkscape"
   xmlns:sodipodi="http://sodipodi.sourceforge.net/DTD/sodipodi-0.dtd"
   xmlns:xlink="http://www.w3.org/1999/xlink"
   xmlns="http://www.w3.org/2000/svg"
   xmlns:svg="http://www.w3.org/2000/svg"><sodipodi:namedview
   id="namedview1156"
   pagecolor="#ffffff"
   bordercolor="#666666"
   borderopacity="1.0"
   inkscape:pageshadow="2"
   inkscape:pageopacity="0.0"
   inkscape:pagecheckerboard="0"
   inkscape:document-units="mm"
   showgrid="false"
   inkscape:zoom="0.85926587"
   inkscape:cx="520.21151"
   inkscape:cy="361.35498"
   inkscape:window-width="2560"
   inkscape:window-height="1391"
   inkscape:window-x="0"
   inkscape:window-y="25"
   inkscape:window-maximized="1"
   inkscape:current-layer="layer1"
   units="px"
   fit-margin-left="10"
   fit-margin-right="10"
   fit-margin-bottom="10"
   fit-margin-top="10" />
 <defs
   id="defs17"><style
     type="text/css"
     id="style2">
   <![CDATA[
    .str0 {stroke:#332C2B;stroke-width:20}
    .fil32 {fill:black}
    .fil0 {fill:black}
    .fil3 {fill:black;fill-rule:nonzero}
    .fil29 {fill:#2B2B2B;fill-rule:nonzero}
    .fil25 {fill:#35160F;fill-rule:nonzero}
    .fil27 {fill:#401308;fill-rule:nonzero}
    .fil5 {fill:#4F1801;fill-rule:nonzero}
    .fil4 {fill:#5D5C60;fill-rule:nonzero}
    .fil22 {fill:#633518;fill-rule:nonzero}
    .fil15 {fill:#683529;fill-rule:nonzero}
    .fil6 {fill:#782E0F;fill-rule:nonzero}
    .fil14 {fill:#7D2915;fill-rule:nonzero}
    .fil8 {fill:#871D15;fill-rule:nonzero}
    .fil17 {fill:#878787;fill-rule:nonzero}
    .fil30 {fill:#96959A;fill-rule:nonzero}
    .fil11 {fill:#96959B;fill-rule:nonzero}
    .fil12 {fill:#9F6941;fill-rule:nonzero}
    .fil24 {fill:#A1868D;fill-rule:nonzero}
    .fil26 {fill:#A9513D;fill-rule:nonzero}
    .fil28 {fill:#AB6243;fill-rule:nonzero}
    .fil16 {fill:#B05A36;fill-rule:nonzero}
    .fil19 {fill:#B59586;fill-rule:nonzero}
    .fil23 {fill:#C9B29A;fill-rule:nonzero}
    .fil10 {fill:#D6D6D6;fill-rule:nonzero}
    .fil31 {fill:#DB9273;fill-rule:nonzero}
    .fil7 {fill:#E74226;fill-rule:nonzero}
    .fil13 {fill:#EBDEDC;fill-rule:nonzero}
    .fil9 {fill:#EDE5D2;fill-rule:nonzero}
    .fil18 {fill:#FF8E6E;fill-rule:nonzero}
    .fil20 {fill:#FF8F6E;fill-rule:nonzero}
    .fil21 {fill:white;fill-rule:nonzero}
    .fil33 {fill:white;fill-rule:nonzero}
    .fil36 {fill:url(#id0)}
    .fil34 {fill:url(#id1)}
    .fil2 {fill:url(#id2)}
    .fil35 {fill:url(#id3)}
    .fil1 {fill:url(#id4)}
   ]]>
  </style><linearGradient
     id="id0"
     gradientUnits="userSpaceOnUse"
     x1="22171"
     y1="17898"
     x2="22171"
     y2="18572">
   <stop
   offset="0"
   style="stop-opacity:1; stop-color:#5D5C60"
   id="stop4" />
   <stop
   offset="1"
   style="stop-opacity:1; stop-color:#FEFEFE"
   id="stop6" />
  </linearGradient><linearGradient
     id="id1"
     gradientUnits="userSpaceOnUse"
     xlink:href="#id0"
     x1="8467"
     y1="15751"
     x2="8467"
     y2="16425">
  </linearGradient><linearGradient
     id="id2"
     gradientUnits="objectBoundingBox"
     x1="1.04597"
     y1="0.114451"
     x2="1.04597"
     y2="0.98283094">
   <stop
   offset="0"
   style="stop-opacity:1; stop-color:#FFA147"
   id="stop10" />
   <stop
   offset="1"
   style="stop-opacity:1; stop-color:#E74226"
   id="stop12" />
  </linearGradient><linearGradient
     id="id4"
     gradientUnits="userSpaceOnUse"
     xlink:href="#id2"
     x1="12010"
     y1="2745"
     x2="12010"
     y2="14540">
  </linearGradient><linearGradient
     inkscape:collect="always"
     xlink:href="#id2"
     id="linearGradient6147"
     gradientUnits="userSpaceOnUse"
     x1="16071.806"
     y1="2049.698"
     x2="16071.806"
     y2="10862.861"
     gradientTransform="scale(0.74723558,1.338266)" /></defs>
 <g
   inkscape:groupmode="layer"
   id="layer1"
   inkscape:label="Layer 2"
   transform="translate(-821.45149,-923.98167)"><g
     id="_2397402641312"
     transform="translate(-72.294173)"
     style="clip-rule:evenodd;fill-rule:evenodd;image-rendering:optimizeQuality;shape-rendering:geometricPrecision;text-rendering:geometricPrecision">
   <path
   class="fil1"
   d="m 12802,16001 c 86,-62 190,-96 302,-96 391,0 781,0 1172,0 220,0 412,135 487,343 17,47 33,95 48,143 53,159 26,329 -72,465 -99,136 -250,214 -419,214 -393,0 -787,0 -1180,0 -69,0 -134,-11 -195,-34 -95,124 -245,201 -410,201 -212,0 -424,0 -636,0 -150,0 -286,-61 -385,-173 -33,-37 -61,-78 -84,-122 -295,0 -590,0 -885,0 -84,0 -164,-19 -236,-56 -137,64 -288,96 -441,96 -65,0 -130,0 -196,0 -156,0 -311,-33 -453,-97 -72,37 -152,56 -235,56 -199,0 -399,0 -598,0 -52,0 -103,-8 -151,-22 -49,15 -100,22 -151,22 -199,0 -398,0 -597,0 -29,0 -58,-2 -87,-7 -29,5 -58,7 -88,7 -372,0 -745,0 -1117,0 -84,0 -164,-19 -236,-56 -142,63 -298,96 -454,96 -65,0 -130,0 -196,0 -79,0 -159,-9 -236,-26 -187,389 -564,706 -1011,706 -190,0 -365,-51 -527,-148 -70,-42 -133,-90 -196,-141 -40,-32 -81,-68 -124,-95 -47,-29 -86,-41 -141,-41 -148,0 -283,-60 -381,-167 -339,0 -678,0 -1017,0 -168,0 -320,-77 -419,-214 -98,-136 -125,-305 -72,-465 16,-48 31,-96 48,-143 74,-208 266,-343 487,-343 374,0 748,0 1122,0 19,-75 38,-150 56,-226 3,-11 6,-24 9,-37 -15,-52 -22,-106 -21,-160 3,-132 55,-256 147,-349 9,-25 16,-54 21,-74 52,-208 104,-416 157,-624 9,-34 23,-90 29,-135 -51,-145 -36,-307 46,-441 13,-22 27,-43 42,-63 99,-134 249,-210 416,-210 182,0 363,0 545,0 229,0 426,148 493,361 56,0 111,0 167,0 78,0 154,17 223,50 133,-61 279,-94 427,-94 58,0 116,0 175,0 139,0 274,30 398,87 65,-28 136,-43 209,-43 333,0 667,0 1000,0 26,0 53,2 79,6 26,-4 52,-6 78,-6 179,0 357,0 536,0 47,0 92,6 136,18 44,-12 89,-18 135,-18 179,0 357,0 536,0 73,0 144,15 209,43 125,-57 262,-87 401,-87 49,0 98,0 147,0 146,0 289,33 420,93 68,-32 143,-49 221,-49 29,0 57,0 86,0 14,-44 34,-86 60,-126 97,-149 256,-235 433,-235 199,0 398,0 597,0 64,0 126,11 184,33 58,-22 120,-33 184,-33 199,0 398,0 597,0 207,0 388,118 472,307 14,31 24,62 33,94 49,172 5,355 -111,485 -8,41 -13,95 -15,126 -12,176 -28,351 -44,527 -10,111 -20,223 -32,334 51,80 78,174 79,272 1,57 -8,113 -25,166 2,10 5,20 6,28 6,25 12,51 18,76 z"
   id="path22"
   style="fill:url(#id4)" />
   <path
   class="fil2"
   d="m 10245,3412 c 260,39 552,168 756,311 470,329 747,1041 635,1602 -69,344 -237,636 -490,869 39,28 69,66 88,114 33,84 22,171 -31,243 -60,90 -100,283 -114,385 -2,15 -4,30 -5,45 -30,286 -172,570 -417,727 -33,62 -70,124 -110,180 -39,113 -91,243 -150,359 93,92 139,222 127,352 -3,27 -6,55 -12,81 29,118 26,249 -13,360 27,40 50,82 68,122 91,202 103,434 76,652 -5,41 -19,79 -41,112 5,12 10,23 16,34 13,27 20,51 24,81 39,318 -6,727 -126,1021 -6,15 -13,30 -20,44 413,63 716,317 873,708 122,303 131,644 25,953 -109,317 -329,555 -641,680 -89,36 -197,66 -302,80 -124,152 -292,284 -476,363 74,235 106,534 -16,741 -40,68 -103,110 -181,121 -159,24 -373,30 -546,-14 -248,60 -541,27 -727,-155 -39,-38 -62,-80 -72,-133 -27,-138 -27,-298 5,-448 -70,61 -164,79 -253,47 -97,-35 -160,-119 -166,-222 -1,-9 -1,-18 -1,-27 -35,70 -82,135 -142,193 -56,54 -107,114 -148,180 -1,2 -2,3 -3,5 -21,34 -40,69 -57,104 -41,84 -89,166 -144,242 -100,139 -260,220 -431,221 -108,0 -225,-14 -329,-53 -194,34 -416,-7 -573,-125 -71,-53 -107,-132 -101,-220 17,-252 78,-521 223,-733 -17,-4 -33,-7 -50,-10 -71,-12 -147,-21 -219,-23 -21,-1 -41,-4 -60,-9 -8,176 -16,351 -24,527 -3,62 -10,124 -21,185 l -40,219 c -22,122 -126,208 -250,208 h -585 c -118,0 -218,-78 -247,-193 -25,-103 -58,-228 -68,-331 -19,-189 -28,-386 -42,-576 -28,-395 -56,-791 -84,-1186 -38,-533 -75,-1066 -112,-1598 -137,-73 -247,-185 -299,-343 -17,-52 -27,-111 -28,-170 -101,-168 -118,-378 -54,-565 -30,-172 19,-345 144,-459 28,-102 84,-194 162,-263 l 7,-300 c -120,-212 -113,-476 16,-687 8,-14 17,-28 27,-42 0,-49 1,-99 2,-148 6,-193 35,-385 85,-572 -15,-36 -25,-73 -32,-111 -71,-47 -136,-102 -194,-166 -250,-273 -334,-658 -246,-1014 29,-115 77,-247 138,-365 -85,-186 -112,-419 -103,-603 23,-448 229,-870 570,-1161 320,-273 708,-424 1123,-468 57,-252 158,-494 298,-714 375,-586 890,-1118 1502,-1455 99,-55 218,-39 299,40 82,79 101,197 50,298 -75,148 -141,323 -193,480 -112,335 -191,701 -189,1055 2,441 210,810 484,1137 95,-13 194,-12 289,0 6,-12 12,-24 18,-35 170,-335 207,-719 158,-1087 -68,-514 -195,-1073 -363,-1563 -35,-101 -5,-207 76,-276 82,-69 191,-80 285,-29 135,73 282,191 397,290 326,280 616,617 866,966 198,276 346,586 429,914 z m -73,8018 c -155,70 -335,83 -508,21 -2,-1 -4,-1 -6,-2 54,107 103,217 148,327 22,53 49,106 83,153 69,96 155,175 263,225 78,36 162,-22 168,-105 11,-170 -32,-416 -123,-565 -11,-18 -19,-36 -25,-54 z M 6628,8835 c -31,-22 -62,-43 -91,-65 -122,-90 -230,-196 -323,-314 -6,104 -32,208 -79,306 -3,6 -6,12 -9,18 14,142 20,288 23,429 0,9 0,17 0,26 1,-1 2,-2 3,-4 139,-144 313,-278 474,-396 z"
   id="path24"
   style="fill:url(#linearGradient6147)" />
   <path
   class="fil3"
   d="m 6786,9035 c -254,185 -385,306 -449,373 -57,59 -38,159 38,191 6,2 9,3 9,3 -173,168 -298,448 -298,448 -128,-15 -193,-48 -193,-48 6,-425 7,-592 3,-787 -6,-278 -30,-487 -30,-487 16,-27 30,-52 42,-76 94,-191 66,-422 -76,-581 -36,-40 -64,-62 -64,-62 -10,-173 -40,-364 -40,-364 209,190 461,219 461,219 4,13 8,25 12,37 88,268 262,499 488,666 241,178 448,271 448,271 -212,105 -351,198 -351,198 z m 4086,-2941 c 322,-248 462,-548 516,-819 92,-463 -145,-1074 -532,-1344 -352,-247 -710,-275 -710,-275 140,203 215,363 254,464 33,86 52,177 48,269 -16,456 -494,491 -494,491 132,-435 137,-829 94,-1147 -52,-393 -207,-765 -439,-1087 -636,-886 -1178,-1181 -1178,-1181 209,608 331,1277 375,1612 56,423 9,855 -184,1235 -67,133 -124,208 -124,208 -267,-95 -501,-6 -501,-6 -489,-540 -645,-991 -648,-1418 -5,-836 410,-1652 410,-1652 -705,389 -1173,997 -1411,1370 -270,422 -375,931 -280,1422 78,404 244,683 244,683 -257,13 -435,-46 -556,-122 -181,-114 -274,-327 -244,-539 55,-390 390,-619 390,-619 -475,42 -805,225 -1025,412 -288,246 -463,602 -482,981 -20,397 145,589 145,589 0,0 -125,177 -187,427 -69,276 -6,572 187,781 66,72 151,139 259,186 0,0 -31,136 54,229 0,0 -1,2 -2,7 -62,197 -97,401 -103,607 -2,69 -3,145 -1,221 0,0 -31,38 -65,94 -91,149 -86,339 20,477 1,1 2,3 3,4 l -12,519 c 0,0 -176,51 -180,266 0,0 -202,88 -109,330 0,0 -142,268 47,472 0,0 -77,302 309,412 0,0 241,3437 249,3511 7,71 62,296 62,296 h 585 l 40,-219 c 9,-50 15,-100 17,-151 18,-413 107,-2392 130,-3057 0,0 45,18 120,93 84,83 208,111 317,68 90,-35 205,-92 340,-185 0,0 -177,585 -262,976 -107,495 7,818 -300,1345 0,0 115,3 253,26 84,14 167,38 246,68 82,31 233,76 389,56 0,0 -69,81 -122,112 0,0 -15,1 -37,3 -90,10 -173,55 -229,126 -81,103 -185,300 -208,645 0,0 179,135 422,68 17,-5 34,-2 50,6 39,20 127,54 277,54 89,0 173,-43 225,-115 36,-50 79,-118 122,-205 21,-43 44,-84 69,-125 1,-2 2,-4 3,-6 52,-84 116,-160 188,-229 81,-78 211,-266 113,-609 0,0 0,0 1,0 35,-22 79,-26 118,-12 72,25 202,79 316,169 42,33 61,87 50,139 -15,74 -32,191 -24,314 0,0 203,-212 537,-172 0,0 -11,108 -14,174 0,0 -182,222 -111,590 0,0 199,194 553,71 0,0 182,77 504,29 0,0 128,-217 -43,-633 0,0 -14,-83 -23,-157 0,0 390,-43 641,-430 0,0 628,10 837,-598 86,-252 79,-529 -20,-776 -96,-240 -300,-514 -729,-558 0,0 186,303 159,714 -17,263 -289,430 -528,319 -121,-56 -249,-150 -362,-307 -45,-63 -81,-132 -111,-204 -40,-96 -115,-270 -204,-431 0,0 -13,-245 58,-406 119,87 228,141 323,175 217,77 454,-32 541,-245 168,-411 109,-894 109,-894 -52,-106 -99,-258 -99,-258 52,-17 101,-31 101,-31 61,-493 -159,-664 -159,-664 0,-3 0,-7 0,-10 -1,-50 8,-100 26,-147 52,-141 -13,-279 -13,-279 15,-31 23,-71 26,-108 5,-57 -16,-113 -57,-152 -77,-73 -136,-140 -136,-140 127,-167 241,-514 241,-514 74,-97 147,-246 147,-246 296,-144 348,-498 356,-571 2,-18 4,-35 6,-53 48,-354 160,-501 160,-501 -180,-31 -402,-7 -402,-7 72,-129 195,-238 275,-300 z"
   id="path26" />
   <g
   id="g578">
    <path
   class="fil4"
   d="m 9532,6956 c -37,-30 -91,-24 -121,12 -46,54 -82,102 -105,135 -25,35 -55,67 -86,98 -45,45 -90,78 -132,101 0,0 22,32 67,61 72,48 162,59 245,38 61,-15 142,-47 201,-112 65,-71 68,-180 8,-256 -19,-24 -44,-50 -77,-77 z"
   id="path28" />
    <path
   class="fil4"
   d="m 7400,7073 c -15,-14 -33,-29 -67,-48 -57,-32 -128,-22 -182,16 -52,36 -118,93 -157,170 -24,47 -13,104 28,138 25,21 60,45 106,67 88,42 187,59 285,55 113,-6 269,-35 366,-145 0,0 -172,-65 -378,-251 z"
   id="path30" />
    <path
   class="fil4"
   d="m 4597,4986 c -39,267 52,424 52,424 0,0 34,-73 89,-143 -89,-85 -127,-191 -141,-281 z"
   id="path32" />
    <path
   class="fil4"
   d="m 5901,5743 c 0,0 253,-57 349,-323 0,0 20,429 -349,323 z m 605,-247 c -21,-262 -125,-394 -125,-394 -295,26 -520,-37 -672,-108 -182,-84 -327,-236 -388,-427 -120,-376 143,-646 143,-646 -626,249 -798,812 -798,812 0,0 -55,264 120,448 22,-53 53,-139 76,-242 -20,-13 -53,-40 -88,-84 0,0 34,16 100,31 9,-46 16,-94 19,-144 -18,-17 -55,-52 -88,-90 0,0 38,20 90,36 2,-75 -4,-152 -21,-229 0,0 225,20 497,443 0,0 -4,-70 -14,-116 0,0 309,244 474,702 38,-23 104,-74 164,-178 0,0 -6,161 -139,254 33,106 57,222 69,348 34,44 101,137 166,268 0,0 -56,-67 -160,-175 6,154 -8,322 -49,502 l 89,125 c 167,-90 229,-240 253,-352 14,-68 12,-138 0,-206 -75,-424 282,-579 282,-579 z"
   id="path34" />
    <path
   class="fil4"
   d="m 7684,5023 c 44,-100 104,-267 114,-444 0,0 -1093,-825 -431,-2599 -149,185 -373,500 -530,882 43,-27 126,-67 253,-65 0,0 -175,45 -304,201 -38,109 -70,223 -92,340 31,-32 122,-108 312,-120 0,0 -267,104 -339,311 -10,109 -11,221 -1,333 28,-48 101,-139 274,-194 0,0 -209,100 -250,364 5,27 11,55 18,82 0,0 32,140 85,288 47,-202 250,-317 250,-317 -213,236 -190,478 -190,478 0,0 58,121 114,284 15,-37 62,-134 204,-229 0,0 -156,163 -161,368 30,110 43,223 37,337 -2,37 -5,76 -9,113 -50,-251 -86,-383 -101,-436 -69,1 -271,-18 -386,-273 0,0 122,191 355,189 -68,-176 -132,-316 -158,-371 -75,-18 -143,-57 -194,-116 -106,-123 -135,-261 -135,-261 0,0 97,221 290,285 -61,-160 -98,-315 -98,-315 -11,-45 -20,-91 -28,-136 -61,-22 -201,-100 -215,-340 0,0 40,182 202,241 -16,-148 -12,-292 7,-432 -30,-36 -96,-141 -65,-331 0,0 -2,132 81,236 24,-128 59,-252 102,-368 -30,-198 79,-331 79,-331 -43,112 -47,198 -45,244 241,-587 657,-987 657,-987 -543,458 -845,897 -994,1232 -157,351 -186,745 -91,1117 3,10 5,21 8,32 25,98 59,194 100,287 195,440 242,774 242,774 0,0 164,-45 352,185 42,51 101,87 166,95 83,10 178,-19 226,-189 30,-108 52,-230 244,-345 -503,-653 -561,-1496 -561,-1496 0,0 90,797 608,1400 z"
   id="path36" />
    <path
   class="fil4"
   d="m 10220,5431 c -14,-33 -29,-80 -38,-147 0,0 64,184 312,232 0,0 -77,23 -158,8 -52,-10 -96,-45 -117,-93 z m 592,-137 c 0,0 -19,24 -58,48 -68,41 -153,42 -219,-1 -47,-31 -99,-87 -140,-187 0,0 149,210 417,140 z m 210,-202 c -26,34 -53,59 -79,78 -77,58 -183,60 -263,5 -73,-49 -109,-113 -109,-113 228,167 451,29 451,29 z m 43,-237 c -14,28 -30,50 -47,66 -50,50 -126,64 -193,41 -98,-33 -161,-108 -161,-108 221,119 401,0 401,0 z m -43,-190 c -4,11 -8,20 -13,29 -34,64 -113,89 -179,60 -57,-25 -90,-60 -90,-60 144,77 282,-28 282,-28 z m 194,387 c -19,64 -54,139 -112,220 -83,113 -197,194 -317,266 -168,100 -475,233 -601,560 36,-324 361,-516 530,-616 120,-72 234,-153 317,-266 59,-80 93,-155 112,-219 32,-105 21,-218 -25,-318 -276,-586 -653,-718 -653,-718 110,155 155,301 169,422 27,237 -79,473 -280,600 -212,133 -441,103 -441,103 -54,171 -60,295 -60,295 98,46 145,107 145,107 0,0 -4,-59 -3,-106 0,0 64,220 311,312 0,0 -104,30 -203,-31 0,0 58,186 49,405 -3,84 34,166 103,215 34,24 79,46 138,61 120,-195 285,-341 398,-437 151,-129 251,-246 315,-341 83,-123 123,-270 117,-419 -1,-34 -4,-66 -7,-96 z"
   id="path38" />
    <path
   class="fil4"
   d="m 9623,3088 c -370,-690 -865,-1125 -865,-1125 0,0 371,416 620,953 -9,-105 -49,-192 -49,-192 93,116 97,245 95,296 50,120 93,245 123,371 14,-25 35,-82 36,-204 0,0 42,167 -13,312 23,125 39,271 39,433 31,-14 118,-69 130,-238 0,0 47,221 -131,327 -5,139 -21,289 -54,447 41,-24 156,-114 191,-268 0,0 -4,274 -209,348 -3,13 -7,26 -10,39 -16,60 -45,179 -71,317 44,-2 173,-23 244,-186 0,0 -16,236 -257,261 -23,141 -40,294 -34,425 -45,-134 -47,-300 -32,-453 -35,-195 -155,-334 -155,-334 97,71 148,145 174,191 15,-93 34,-176 50,-234 2,-6 3,-13 5,-19 -16,-274 -186,-445 -186,-445 141,108 201,213 224,270 21,-118 34,-229 39,-334 -55,-224 -226,-351 -226,-351 130,65 198,137 228,178 -3,-114 -14,-219 -32,-317 -115,-224 -302,-299 -302,-299 128,26 208,65 256,98 -31,-112 -69,-222 -111,-330 -104,-121 -241,-180 -241,-180 94,10 153,33 188,53 -161,-365 -367,-685 -506,-882 715,1682 -43,2561 -43,2561 40,201 95,339 134,421 333,-594 323,-1392 323,-1392 0,0 42,882 -271,1486 167,131 184,253 218,350 19,54 39,81 61,106 70,79 196,60 244,-33 37,-71 78,-118 110,-146 28,-25 64,-37 101,-35 12,1 23,2 34,3 6,-333 37,-432 74,-571 58,-214 81,-411 93,-580 27,-380 -55,-762 -235,-1098 z"
   id="path40" />
    <path
   class="fil4"
   d="m 5175,9846 c 0,0 -48,51 -10,159 0,0 47,5 116,3 54,-1 108,-17 153,-47 l 1,-1 c 0,0 -24,-25 -67,-52 -38,-24 -80,-41 -124,-51 -20,-5 -43,-9 -69,-11 z"
   id="path42" />
    <path
   class="fil4"
   d="m 5047,9396 c 0,0 38,35 65,120 0,0 127,-24 266,-8 0,0 -142,-151 -332,-111 z"
   id="path44" />
    <path
   class="fil4"
   d="m 5139,10312 c 4,57 -9,101 -9,101 158,-11 225,-92 225,-92 -99,11 -216,-9 -216,-9 z"
   id="path46" />
    <path
   class="fil4"
   d="m 9279,8387 c 0,0 145,-34 269,10 0,0 15,-82 64,-124 0,0 -173,-52 -334,114 z"
   id="path48" />
    <path
   class="fil4"
   d="m 9220,8839 c 0,0 118,-104 261,-125 0,0 54,63 14,170 0,0 -146,21 -276,-46 z"
   id="path50" />
    <path
   class="fil4"
   d="m 9302,9202 c 0,0 80,87 226,87 0,0 -13,-45 -13,-102 0,0 -73,29 -213,15 z"
   id="path52" />
    <path
   class="fil4"
   d="m 6892,14234 c 0,0 1,2 4,5 28,31 69,47 110,45 19,-1 43,-2 70,-6 56,-8 102,-48 121,-101 20,-57 49,-134 85,-189 0,0 -24,-91 -114,-134 -14,-7 -30,-5 -41,5 -45,38 -163,154 -233,374 z"
   id="path54" />
    <path
   class="fil4"
   d="m 6740,13879 c -127,144 -147,340 -147,340 29,19 73,22 112,18 54,-4 98,-42 113,-94 50,-177 176,-313 176,-313 -34,-8 -66,-12 -94,-14 -60,-5 -120,17 -160,62 z"
   id="path56" />
    <path
   class="fil4"
   d="m 8938,14225 c 0,0 77,77 252,55 20,-2 36,-19 36,-39 1,-21 1,-49 1,-80 0,-87 -31,-173 -91,-236 -3,-3 -5,-5 -8,-8 -14,-14 -37,-15 -53,-3 -46,36 -132,128 -138,312 z"
   id="path58" />
    <path
   class="fil4"
   d="m 9327,14254 c 0,0 -3,-148 -39,-242 -16,-40 2,-89 44,-101 6,-2 13,-3 20,-4 35,-3 70,12 94,38 36,39 89,119 125,276 0,0 -90,58 -244,32 z"
   id="path60" />
    <path
   class="fil4"
   d="m 9885,12786 c -6,22 -18,64 -28,97 59,51 125,90 197,117 21,-21 56,-67 72,-139 -76,-11 -156,-34 -240,-75 z"
   id="path62" />
    <path
   class="fil4"
   d="m 10465,13021 c 84,-19 184,-49 273,-95 4,-100 -23,-176 -42,-217 -29,23 -60,44 -93,62 -32,17 -69,35 -111,50 5,23 22,116 -26,201 z"
   id="path64" />
    <path
   class="fil4"
   d="m 10888,12425 c -7,23 -15,45 -24,67 -27,64 -67,120 -115,169 14,23 67,124 55,266 89,-78 174,-192 219,-357 -42,-90 -106,-130 -135,-145 z"
   id="path66" />
    <path
   class="fil4"
   d="m 10420,12843 c -71,19 -152,29 -240,23 -10,79 -44,131 -64,154 85,23 174,29 263,17 50,-73 46,-157 41,-194 z"
   id="path68" />
    <path
   class="fil4"
   d="m 10918,12119 c 5,75 3,156 -13,237 28,10 87,39 136,110 5,-67 6,-176 -21,-304 -37,-31 -81,-40 -102,-42 z"
   id="path70" />
    <path
   class="fil4"
   d="m 10994,12061 c -32,-101 -82,-209 -160,-316 0,0 54,126 77,297 19,0 51,4 84,19 z"
   id="path72" />
    <path
   class="fil5"
   d="m 7008,13247 c 0,0 -79,9 -193,-15 -45,-10 -89,-26 -130,-48 -55,-29 -162,-73 -291,-62 0,0 120,-173 184,-449 0,0 0,2 0,7 7,90 33,177 77,257 34,63 84,142 152,215 0,0 -25,-54 -56,-163 0,0 63,142 262,202 0,0 0,32 -5,56 z"
   id="path74" />
    <path
   class="fil5"
   d="m 7654,12997 c 0,0 45,-66 214,-51 0,0 -44,-34 -138,-46 0,0 45,-15 115,-20 72,-5 144,15 203,57 29,20 62,47 97,78 58,54 126,96 200,125 25,10 51,18 77,23 0,0 76,-86 75,-284 0,0 -49,6 -118,-4 -120,-16 -225,-90 -286,-195 -51,-87 -110,-219 -146,-398 0,0 -90,1 -182,-34 0,0 0,40 -4,100 -7,121 -31,240 -66,355 -23,77 -50,190 -42,293 z"
   id="path76" />
    <path
   class="fil5"
   d="m 10059,9532 c -31,0 -57,-26 -57,-57 0,-32 26,-57 57,-57 31,0 57,26 57,57 0,31 -26,57 -57,57 z m 106,-186 c 0,0 -386,-4 -726,142 0,0 -71,137 -67,327 0,0 127,-28 318,-8 46,5 93,-4 133,-28 29,-17 62,-40 90,-68 0,0 -96,1 -219,25 0,0 57,-28 191,-67 67,-19 136,-28 205,-24 39,2 82,6 118,13 0,0 23,-163 -44,-312 z"
   id="path78" />
    <path
   class="fil5"
   d="m 8550,10905 c 0,0 269,-726 630,-879 0,0 -94,-186 -289,-362 0,0 104,-53 340,-83 0,0 34,-104 71,-167 0,0 -61,-282 -295,-439 0,0 99,224 -5,416 0,0 23,-137 -71,-285 0,0 -29,48 -75,150 -61,138 -107,281 -141,428 -57,247 -149,716 -165,1220 z"
   id="path80" />
    <path
   class="fil5"
   d="m 7316,9035 c 0,0 -460,144 -712,485 0,0 141,-24 356,14 0,0 -93,91 -196,226 0,0 64,89 151,317 45,118 92,235 144,350 17,39 35,78 52,115 0,0 -41,-581 157,-1182 0,0 -157,157 -251,321 0,0 110,-471 299,-646 z"
   id="path82" />
    <path
   class="fil6"
   d="m 6842,9903 c 21,46 46,103 73,175 8,20 15,39 23,59 42,68 80,90 80,90 0,-32 4,-70 8,-103 11,-77 17,-155 18,-233 1,-148 -9,-217 -12,-234 -5,8 -10,17 -15,25 0,0 2,-9 6,-26 -131,71 -171,176 -182,246 z"
   id="path84" />
    <path
   class="fil6"
   d="m 6621,9499 c 47,-6 188,-27 316,-91 122,-61 212,-175 233,-309 0,-2 0,-4 1,-6 -151,68 -388,199 -549,406 z"
   id="path86" />
    <path
   class="fil6"
   d="m 9290,9371 c -21,-66 -74,-198 -180,-309 -19,16 -43,43 -62,90 2,20 2,41 1,63 10,42 21,128 -8,244 0,0 166,0 250,-88 z"
   id="path88" />
    <path
   class="fil6"
   d="m 8717,10451 c 0,0 175,-166 279,-378 8,-15 11,-32 10,-50 -3,-53 -24,-170 -145,-293 0,0 -213,347 -144,720 z"
   id="path90" />
    <path
   class="fil6"
   d="m 10059,9418 c 31,0 57,26 57,57 0,31 -26,57 -57,57 -31,0 -57,-26 -57,-57 0,-32 26,-57 57,-57 z m -493,202 c 0,0 50,40 291,-18 86,-21 241,-28 353,41 4,-43 10,-175 -45,-298 0,0 -222,-2 -478,60 -105,94 -121,214 -121,214 z"
   id="path92" />
    <path
   class="fil6"
   d="m 6721,13044 c -26,-38 -49,-75 -66,-108 -43,-79 -69,-167 -77,-257 0,-4 0,-7 0,-7 -38,165 -96,293 -137,369 64,-8 182,-17 280,2 z"
   id="path94" />
    <path
   class="fil6"
   d="m 8049,12772 c 0,0 -65,-143 -65,-349 -13,-43 -25,-90 -36,-140 0,0 -90,1 -182,-34 0,0 0,40 -4,100 -7,121 -31,240 -66,355 -13,44 -27,99 -36,158 114,-52 262,-15 262,-15 -87,-66 -127,-152 -127,-152 132,83 253,77 253,77 z"
   id="path96" />
    <path
   class="fil7"
   d="m 5476,5251 c 24,218 -45,355 -45,355 -94,-570 -374,-881 -374,-881 38,401 -102,668 -145,739 -19,31 -37,62 -54,93 -70,130 -114,238 -142,320 -44,131 -57,271 -28,406 48,220 167,294 167,294 -291,-104 -285,-426 -285,-426 0,0 -34,595 455,689 0,0 -77,-220 43,-592 0,0 -33,331 79,571 13,29 43,46 75,45 3,0 5,0 8,0 60,-4 111,-45 134,-101 38,-94 69,-287 -58,-635 0,0 29,33 67,87 66,92 105,201 109,315 4,92 -7,201 -59,288 l 59,-5 c 0,0 30,-33 71,-102 83,-141 129,-301 140,-464 16,-235 -1,-630 -218,-995 z"
   id="path98" />
    <path
   class="fil8"
   d="m 5615,5641 17,-21 c -25,-90 -60,-182 -105,-273 12,36 18,68 21,94 7,53 -6,106 -36,150 -52,78 -79,140 -79,140 l 19,87 55,108 c -27,12 -65,15 -94,15 -31,0 -60,-16 -77,-42 -8,-12 -14,-23 -19,-32 -7,-12 -21,-19 -34,-15 -27,8 -45,30 -55,45 -9,15 -26,26 -44,25 -58,-1 -51,-97 -51,-97 32,-49 48,-90 55,-123 6,-28 -29,-46 -48,-25 -33,36 -69,54 -101,63 -77,21 -158,-20 -183,-96 -7,-22 -10,-45 -11,-64 -42,80 -74,150 -98,212 l 70,121 c 0,0 206,13 213,13 6,0 59,-11 63,-6 3,5 55,83 55,83 0,0 185,36 208,38 23,2 63,2 72,2 9,0 80,-47 80,-47 0,0 114,5 36,-69 -78,-73 -81,-175 -81,-175 l 97,-47 56,-64 z"
   id="path100" />
    <path
   class="fil9"
   d="m 5516,5843 c -18,-8 -28,-28 -22,-46 0,-1 1,-2 1,-2 6,-17 28,-20 40,-6 14,16 33,46 47,100 0,0 -23,-25 -66,-45 z m -448,151 c -1,3 -2,5 -4,8 -10,22 -26,39 -46,52 -42,28 -61,58 -61,58 10,-75 38,-115 55,-133 10,-10 23,-15 37,-15 0,0 0,0 1,0 14,1 23,16 18,29 z m 537,-463 c 0,14 -2,29 -5,45 -8,36 -36,63 -70,76 -20,7 -45,19 -69,39 -41,32 -60,86 -51,137 6,34 19,76 45,124 14,25 -7,56 -35,53 -37,-5 -86,-32 -131,-127 0,0 -14,64 -69,88 -27,12 -61,1 -73,-26 -8,-17 -13,-42 -2,-76 8,-24 18,-46 24,-101 0,0 -43,72 -136,99 -54,16 -111,11 -161,-13 -35,-17 -76,-46 -108,-95 -20,46 -35,88 -48,124 -44,131 -57,271 -28,406 48,220 167,294 167,294 -291,-104 -285,-426 -285,-426 0,0 -34,595 455,689 0,0 -77,-220 43,-592 0,0 -33,331 79,571 13,29 43,46 75,45 3,0 5,0 8,0 60,-4 111,-45 134,-101 38,-94 69,-287 -58,-635 0,0 29,33 67,87 66,92 105,201 109,315 4,92 -7,201 -59,288 l 59,-5 c 0,0 30,-33 71,-102 83,-141 129,-301 140,-464 12,-175 5,-440 -89,-716 z"
   id="path102" />
    <path
   class="fil7"
   d="m 9581,12251 c 0,0 275,413 728,346 176,-26 333,-132 408,-294 73,-157 99,-399 -89,-742 0,0 217,240 227,592 6,222 -105,435 -299,543 -129,72 -311,108 -558,31 0,0 252,23 502,-93 0,0 -278,93 -560,2 -142,-46 -257,-152 -320,-288 -13,-28 -26,-60 -40,-96 z"
   id="path104" />
    <path
   class="fil7"
   d="m 6858,12645 c -20,-50 -20,-107 -2,-157 26,-69 75,-102 75,-102 -112,294 123,386 123,386 -122,0 -174,-69 -196,-127 z m 1655,87 c -149,-442 -189,-830 -189,-830 -388,-161 -591,-451 -591,-451 -243,295 -704,470 -704,470 -42,93 -122,206 -173,275 -55,73 -97,156 -120,245 -27,105 -24,193 -9,258 29,126 138,218 266,232 225,25 374,-135 374,-135 -103,184 -293,239 -293,239 86,161 156,388 156,388 -63,110 -163,236 -204,285 -11,14 -27,22 -45,24 v 0 c 42,16 67,35 67,35 10,-10 21,-18 31,-24 26,-16 58,-20 88,-11 117,36 181,162 181,162 72,-123 192,-240 249,-293 28,-26 48,-60 56,-97 10,-46 9,-92 -3,-138 -6,-26 -17,-50 -30,-74 -128,-252 -161,-501 -161,-501 164,-200 124,-396 124,-396 -50,190 -216,258 -216,258 122,-134 118,-308 118,-308 -70,200 -286,184 -286,184 348,-132 176,-586 176,-586 264,226 554,178 554,178 -7,-167 50,-325 50,-325 -1,9 -1,19 -2,28 -5,132 16,264 58,389 114,340 291,468 291,468 -83,-171 -92,-339 -92,-339 82,225 277,391 277,391 z"
   id="path106" />
    <path
   class="fil7"
   d="m 8993,13856 c 0,0 34,-108 34,-233 0,0 153,39 352,13 0,0 43,90 79,167 13,28 22,56 29,81 0,0 -49,-49 -166,-70 -38,-7 -77,7 -100,38 l -1,1 c 0,0 -3,-5 -10,-12 -33,-35 -84,-46 -129,-30 -25,9 -55,23 -88,45 z"
   id="path108" />
    <path
   class="fil7"
   d="m 5089,10053 c -62,-149 18,-252 18,-252 -157,-97 -320,-23 -320,-23 90,-107 190,-93 190,-93 -7,-93 77,-104 77,-104 -26,-140 -124,-191 -184,-208 -40,-12 -86,7 -101,46 -17,44 13,86 13,86 -180,90 -159,239 -159,239 0,0 38,-7 83,5 0,0 -126,38 -135,180 -2,26 2,53 8,78 11,41 35,105 88,164 45,-25 113,-31 113,-31 -5,3 -10,7 -14,10 -42,31 -72,76 -83,126 0,1 -1,2 -1,4 -16,83 43,163 127,173 111,13 225,-3 225,-3 73,-79 34,-184 34,-184 -109,-25 -98,-115 -98,-115 -88,-39 -110,-114 -110,-114 97,77 229,17 229,17 z"
   id="path110" />
    <path
   class="fil7"
   d="m 9992,9050 c 56,-68 78,-140 87,-194 10,-63 -5,-129 -47,-178 -37,-42 -75,-53 -75,-53 48,-7 76,-1 76,-1 l 1,-13 c 3,-33 -3,-67 -20,-96 -61,-110 -140,-130 -140,-130 2,-4 5,-9 7,-13 16,-32 13,-71 -10,-99 0,0 -1,-1 -1,-1 -18,-22 -48,-30 -75,-22 -171,48 -191,200 -191,200 0,0 79,25 79,107 0,0 110,10 186,103 0,0 -180,-81 -320,22 0,0 80,93 25,247 0,0 136,72 227,-21 0,0 -10,82 -114,120 0,0 0,16 -4,36 -5,28 -23,51 -49,62 -14,6 -31,13 -50,19 0,0 -12,61 2,115 4,15 14,28 29,35 37,18 123,45 272,11 57,-13 98,-65 93,-124 -5,-57 -28,-125 -104,-159 0,0 58,-6 116,28 z"
   id="path112" />
    <path
   class="fil7"
   d="m 9857,7253 c -43,43 -88,60 -88,60 114,-161 25,-377 25,-377 39,23 66,50 85,77 52,74 41,176 -22,240 z m -37,-652 c -59,31 -118,75 -176,125 0,0 173,39 294,163 0,0 -132,-61 -368,-41 0,0 82,37 148,133 75,110 67,257 -15,362 -97,125 -289,254 -645,133 l -76,-133 c -40,11 -73,14 -95,15 0,0 0,1 1,1 42,88 114,159 201,202 110,54 259,81 447,13 0,0 -94,92 -237,119 47,11 96,18 147,18 48,0 95,-6 140,-16 32,-35 121,-117 258,-129 135,-113 221,-283 221,-473 0,-201 -96,-380 -245,-493 z"
   id="path114" />
    <path
   class="fil7"
   d="m 10334,6661 c 0,0 22,39 45,107 33,-14 107,-45 200,-68 0,0 -101,58 -172,167 26,112 41,261 7,432 0,0 23,-19 54,-54 59,-67 100,-147 122,-233 16,-62 40,-147 47,-221 4,-45 4,-99 30,-179 0,0 -162,-11 -333,50 z"
   id="path116" />
    <path
   class="fil7"
   d="m 9446,5964 c -75,91 -211,109 -297,28 -22,-21 -42,-50 -55,-90 0,0 193,202 395,-30 0,0 -4,44 -43,92 z m -481,-254 c -20,-31 -36,-63 -51,-96 -47,-109 -104,-190 -104,-190 197,96 209,395 209,395 -17,-46 -38,-83 -54,-108 z m -433,783 c -54,31 -120,30 -174,-1 -65,-37 -163,-103 -266,-212 0,0 111,72 261,130 56,22 118,22 174,-1 63,-26 151,-67 226,-115 0,0 -98,128 -221,199 z m -30,1199 c -215,51 -280,-125 -280,-125 -70,60 -37,175 -37,175 -18,-22 -31,-44 -40,-63 -18,-38 -20,-82 -6,-121 20,-55 50,-85 77,-102 25,-16 59,-3 66,26 46,188 220,210 220,210 z m -180,105 c -32,10 -69,-6 -79,-39 -6,-19 -7,-46 1,-85 0,0 78,98 131,96 0,0 -22,18 -53,28 z M 7983,6584 c -14,-6 -45,-23 -62,-38 -116,-96 -165,-212 -165,-212 194,167 286,198 411,241 75,26 128,57 165,87 55,45 78,117 61,186 -40,163 -173,227 -173,227 51,-104 68,-211 73,-272 3,-33 -13,-65 -42,-83 -86,-52 -217,-113 -268,-135 z m -374,-932 c -2,-65 22,-129 70,-175 48,-46 95,-66 95,-66 -128,176 -138,405 -138,405 -19,-59 -25,-118 -26,-164 z m 762,574 c 45,13 93,9 135,-11 58,-28 144,-77 211,-144 0,0 -73,133 -191,219 -43,31 -98,39 -148,22 -80,-28 -202,-97 -297,-274 0,0 103,133 291,188 z m -472,1361 c -85,121 -229,185 -377,176 -84,-5 -190,-26 -297,-86 0,0 488,115 738,-216 0,0 -16,58 -64,126 z M 6706,7302 c -32,-58 -23,-130 19,-181 42,-51 94,-75 94,-75 -129,210 43,378 43,378 -87,-32 -132,-80 -156,-122 z m 782,-1361 c -21,78 -93,132 -173,129 -74,-2 -165,-30 -225,-139 0,0 261,95 412,-58 0,0 -3,30 -13,68 z m 2449,-232 c -37,-52 -87,-106 -154,-147 -66,-41 -152,-30 -206,26 -39,41 -88,101 -140,190 -58,99 -188,111 -268,19 -52,-60 -97,-168 -115,-232 -27,-93 -82,-259 -207,-357 -54,62 -116,105 -148,122 -25,14 -56,10 -76,-10 -5,-5 -7,-8 -7,-8 h 1 c 17,11 39,9 54,-5 63,-59 92,-115 103,-144 -60,-27 -132,-40 -219,-30 112,-51 225,-39 225,-39 l -99,-298 c -415,-245 -837,0 -837,0 -25,106 -76,303 -76,303 147,-62 275,36 275,36 0,0 -378,-54 -528,378 0,0 -31,127 -102,242 -67,109 -210,140 -314,66 -44,-31 -93,-75 -146,-138 0,0 -25,-31 -67,-64 -80,-62 -190,-69 -279,-21 -55,30 -119,76 -174,148 -95,123 -118,289 -58,432 47,111 143,246 338,360 54,31 112,55 170,79 108,46 353,149 603,370 114,101 278,222 450,263 76,18 158,-5 209,-65 13,-15 25,-31 35,-50 0,0 31,261 -280,229 0,0 -97,163 -367,214 -155,29 -315,10 -456,-60 -53,-26 -109,-62 -156,-109 -75,-74 -81,-194 -23,-281 40,-60 103,-129 202,-189 0,0 -228,-18 -493,90 0,0 60,-63 203,-142 63,-34 132,-56 203,-61 12,-1 24,-2 38,-3 0,0 -161,-78 -306,-136 -111,-45 -215,-108 -303,-190 -38,-35 -76,-77 -109,-124 0,0 -6,270 -259,358 0,0 124,100 271,188 0,0 -166,-30 -298,-62 -116,-28 -271,-61 -476,-25 0,0 19,764 751,856 0,0 -56,-64 -64,-177 -20,-28 -35,-53 -35,-53 -78,46 -139,32 -180,6 -49,-31 -76,-86 -78,-144 -3,-71 14,-143 14,-143 -76,-213 -294,-234 -294,-234 225,-17 302,69 359,155 68,103 121,135 121,135 23,-153 110,-231 110,-231 -33,171 -12,277 8,332 19,-53 49,-111 95,-173 0,0 -46,160 -20,322 22,136 127,244 263,271 71,14 168,28 294,37 98,7 196,28 286,68 104,46 220,124 290,254 0,0 33,-91 112,-179 0,0 23,166 166,242 0,0 148,-92 392,-115 21,-2 43,-3 64,-3 54,0 169,0 288,-2 66,-1 131,-8 195,-20 95,-18 257,-41 393,-16 -144,-52 -268,-134 -368,-237 -17,4 -41,7 -66,2 0,0 22,-9 35,-35 -19,-22 -37,-44 -54,-68 -4,2 -8,4 -11,5 -20,6 -42,4 -63,-1 19,-5 40,-16 56,-29 -111,-162 -173,-356 -173,-558 0,-548 446,-992 996,-992 195,0 377,56 530,152 0,0 27,-44 44,-125 30,-148 -3,-303 -90,-427 z"
   id="path118" />
    <path
   class="fil7"
   d="m 8869,8795 c -75,12 -144,-47 -142,-122 1,-33 12,-73 41,-123 0,0 5,74 41,126 23,33 64,49 104,45 49,-5 137,-24 223,-84 0,0 -81,128 -267,158 z m -340,-21 c -2,3 -3,6 -5,8 -24,39 -68,61 -114,63 -244,10 -426,-86 -426,-86 144,17 337,2 426,-7 32,-3 58,-29 60,-62 5,-73 -28,-134 -28,-134 43,29 69,60 84,87 24,40 25,89 3,131 z M 7288,8372 c -67,18 -137,-16 -162,-80 -9,-22 -15,-50 -15,-84 0,0 67,132 238,136 0,0 -23,17 -61,28 z m 1972,-210 c -22,-2 -43,-5 -61,-8 -22,-3 -44,-8 -65,-13 -46,-11 -89,-19 -127,-24 -76,-11 -153,-8 -227,9 -38,9 -77,16 -112,22 -70,12 -141,18 -213,18 -135,0 -245,5 -322,11 -78,6 -153,26 -225,58 -108,48 -207,70 -280,81 -114,17 -232,1 -335,-51 -184,-93 -282,-259 -282,-259 241,180 427,208 427,208 -158,-285 -485,-312 -579,-314 -31,-1 -61,-2 -92,-5 -239,-24 -354,-100 -407,-153 0,0 253,964 1751,1195 104,16 211,17 315,-3 35,-7 71,-16 106,-28 46,-17 78,-60 78,-109 0,-37 -2,-87 -10,-143 -7,-48 -9,-97 -3,-145 1,-12 3,-24 5,-36 0,0 23,45 40,104 6,21 9,44 10,66 1,31 5,83 12,139 11,81 85,138 166,126 26,-4 56,-10 90,-18 65,-16 129,-38 191,-64 40,-17 87,-38 124,-58 l -2,-501 c 0,-35 9,-70 26,-100 z"
   id="path120" />
    <path
   class="fil7"
   d="m 9123,7131 c 33,-29 61,-62 86,-98 78,-109 309,-417 499,-500 -91,-43 -195,-64 -304,-56 -282,19 -519,233 -566,511 -13,79 -11,155 3,227 5,25 29,41 53,36 57,-11 140,-41 229,-120 z"
   id="path122" />
    <path
   class="fil10"
   d="m 5057,6979 c 0,0 219,-15 352,-5 0,0 62,105 3,198 0,0 -158,20 -361,13 0,0 -66,-92 6,-206 z"
   id="path124" />
    <path
   class="fil10"
   d="m 5681,8176 c 170,303 -8,446 -8,446 l -718,12 c 0,0 -206,-155 -37,-446 l 764,-12 z"
   id="path126" />
    <path
   class="fil11"
   d="m 7564,8222 c 0,0 59,-2 127,-26 0,0 -72,-54 -100,-133 0,0 -29,69 -26,159 z"
   id="path128" />
    <path
   class="fil10"
   d="m 9453,7844 c -410,0 -742,-335 -742,-749 0,-414 332,-749 742,-749 410,0 742,335 742,749 0,414 -332,749 -742,749 z m -7,-1623 c -483,0 -874,391 -874,874 0,483 391,874 874,874 483,0 874,-391 874,-874 0,-483 -391,-874 -874,-874 z"
   id="path130" />
    <path
   class="fil10"
   d="m 9403,8120 c 0,0 18,12 47,27 49,25 106,34 160,23 0,0 1,0 1,0 0,0 -22,17 -57,33 0,0 51,0 106,-22 v -117 c 0,0 -138,26 -258,20 v 36 z"
   id="path132" />
    <path
   class="fil12"
   d="m 5047,7288 c 0,0 195,11 407,-13 0,0 12,41 33,129 44,182 78,365 103,550 3,23 6,47 10,70 0,0 -341,7 -644,9 0,0 1,-21 3,-55 13,-208 38,-415 75,-619 5,-26 9,-50 14,-71 z"
   id="path134" />
    <path
   class="fil12"
   d="m 5659,8757 -728,6 v 448 c 0,0 77,20 139,85 0,0 322,26 460,303 0,0 -187,-74 -350,-6 0,0 -11,39 -72,71 0,0 46,32 69,88 0,0 224,32 364,226 0,0 -92,79 -256,104 -43,7 -103,19 -167,74 0,0 43,94 379,148 0,0 -163,213 -535,281 42,910 74,1467 111,1955 28,367 120,1367 144,1630 3,36 34,64 70,64 h 145 c 44,0 80,-34 82,-78 17,-312 82,-1476 99,-1903 23,-588 59,-1765 62,-2353 3,-520 -16,-1143 -16,-1143 z"
   id="path136" />
    <path
   class="fil12"
   d="m 9333,8221 2,42 c 0,0 32,-19 62,-42 0,0 -27,-1 -64,0 z"
   id="path138" />
    <path
   class="fil12"
   d="m 9371,9103 -7,-165 c 0,0 164,53 273,64 0,0 -8,16 -28,39 -34,40 -84,63 -136,66 -28,1 -63,1 -102,-3 z"
   id="path140" />
    <path
   class="fil12"
   d="m 9352,8673 -10,-234 c 0,0 19,0 45,1 66,3 129,32 174,81 8,9 16,18 23,29 0,0 -113,31 -232,123 z"
   id="path142" />
    <path
   class="fil12"
   d="m 9407,9323 c 0,0 119,22 218,16 0,0 -13,15 -35,31 -19,13 -41,20 -63,21 -10,0 -22,0 -35,-1 -24,-2 -45,-12 -61,-30 -8,-9 -16,-21 -23,-37 z"
   id="path144" />
    <path
   class="fil13"
   d="m 7663,9615 c 0,0 4,-115 61,-247 0,0 -46,-45 -92,-93 -17,-18 -33,-37 -47,-57 l -56,-83 c -13,32 -39,95 -64,164 26,55 97,196 197,316 z"
   id="path146" />
    <path
   class="fil13"
   d="m 7989,10020 c 0,0 102,-52 198,-107 51,-30 99,-65 142,-107 4,-4 8,-8 12,-12 0,0 -59,100 -166,196 0,0 186,-70 286,-138 0,0 29,-156 89,-315 l 1,-3 c -97,63 -363,235 -579,348 0,0 6,80 17,138 z"
   id="path148" />
    <path
   class="fil13"
   d="m 8004,9731 c 0,0 397,-198 623,-410 0,0 29,-131 62,-270 0,0 -353,282 -705,384 0,0 52,92 20,297 z"
   id="path150" />
    <path
   class="fil13"
   d="m 7630,9792 c 0,0 -58,-109 -116,-200 -32,-50 -77,-120 -113,-209 0,0 -53,106 -74,388 23,61 70,161 165,272 0,0 -39,-98 -61,-252 0,0 40,107 114,190 0,0 31,-89 85,-189 z"
   id="path152" />
    <path
   class="fil14"
   d="m 7815,10352 c 0,0 148,512 2,949 0,0 136,252 420,128 0,0 -45,81 -185,116 0,0 110,87 275,168 0,0 -34,-293 -7,-700 0,0 31,-396 123,-760 0,0 20,-161 45,-300 -475,161 -673,399 -673,399 z"
   id="path154" />
    <path
   class="fil14"
   d="m 7640,10543 c -36,0 -65,-30 -65,-68 0,-37 29,-68 65,-68 36,0 65,30 65,68 0,37 -29,68 -65,68 z m -13,500 c -37,0 -67,-31 -67,-69 0,-38 30,-69 67,-69 37,0 67,31 67,69 0,38 -30,69 -67,69 z m 95,-682 c 0,0 -275,-105 -425,-399 0,0 -57,307 -5,879 19,209 17,520 -81,836 0,0 298,-159 485,-398 158,-393 26,-919 26,-919 z"
   id="path156" />
    <path
   class="fil15"
   d="m 7741,9721 c 0,0 -34,135 -90,252 0,0 15,131 40,262 h 38 c 0,0 103,-64 87,-201 0,0 25,40 27,132 0,0 39,-74 58,-128 0,0 -13,-154 -32,-274 0,0 -67,-10 -127,-42 z"
   id="path158" />
    <path
   class="fil15"
   d="m 7762,9471 c 0,0 -6,68 -16,130 0,0 42,16 99,23 7,1 14,-2 19,-7 11,-14 26,-43 -8,-82 0,0 48,10 71,54 0,0 13,-35 17,-92 0,0 -5,-4 -15,-11 -39,-25 -87,-33 -133,-23 -10,2 -22,5 -34,8 z"
   id="path160" />
    <path
   class="fil16"
   d="m 10174,10288 c -33,-292 -112,-510 -112,-510 -251,161 -535,164 -535,164 -56,443 66,682 66,682 -35,-32 -65,-66 -91,-98 -62,-78 -100,-173 -111,-272 -7,-60 -11,-111 -11,-111 -516,349 -599,980 -599,980 -13,-164 4,-341 4,-341 -205,427 -236,950 -236,1234 0,106 9,213 25,318 18,121 31,226 31,226 61,-329 84,-644 84,-644 20,193 27,380 28,531 4,333 -57,664 -182,973 -18,45 -30,71 -30,71 0,0 199,-140 610,-82 33,5 66,12 99,19 106,24 482,80 778,-232 0,0 -554,-182 -727,-959 0,0 72,189 305,421 0,0 -80,-83 -127,-361 -7,-41 -12,-82 -17,-124 -12,-114 -69,-518 -265,-815 0,0 -53,183 -8,371 -198,-195 -103,-467 -50,-579 30,-63 53,-130 64,-199 48,-289 -87,-416 -87,-416 151,-5 290,147 344,214 26,32 58,60 96,76 50,22 87,22 87,22 9,-62 34,-98 34,-98 33,87 64,145 88,182 29,45 75,78 127,88 23,5 44,6 64,4 70,-5 131,-50 161,-113 7,-16 14,-32 21,-48 73,-182 95,-381 72,-576 z"
   id="path162" />
    <path
   class="fil16"
   d="m 6981,11594 c 0,0 42,-102 62,-295 23,-225 9,-447 -57,-663 -41,-135 -110,-317 -175,-484 -33,114 -36,212 -36,212 6,6 12,13 17,20 90,109 124,254 99,393 -68,376 -208,784 -208,784 -168,537 -174,979 -174,979 0,0 62,-227 314,-549 141,-180 315,-421 314,-736 0,0 -47,196 -155,341 z"
   id="path164" />
    <path
   class="fil16"
   d="m 6660,10385 c 0,0 6,-208 82,-314 16,-22 12,-53 -7,-72 -24,-25 -60,-61 -104,-104 0,0 24,-132 48,-216 0,0 -183,94 -296,284 0,0 123,-48 254,-21 0,0 -278,49 -395,270 0,0 -86,167 -62,405 0,0 -35,-44 -66,-118 -31,-74 -42,-155 -30,-235 1,-5 2,-10 3,-15 0,0 -113,-18 -201,-45 0,0 -5,376 -18,566 0,0 31,45 75,100 46,58 106,102 174,129 l 3,1 c 38,15 81,13 119,-4 19,-9 41,-19 62,-32 0,0 -100,-24 -166,-86 0,0 48,17 133,17 74,0 147,-17 213,-51 30,-15 63,-36 94,-58 40,-29 82,-57 187,-63 0,0 74,-244 -100,-339 z"
   id="path166" />
    <path
   class="fil17"
   d="m 10320,7095 c 0,-352 -208,-656 -509,-794 129,82 270,220 371,450 104,235 107,506 -7,737 -99,200 -298,406 -691,481 465,-20 835,-404 835,-873 z"
   id="path168" />
    <path
   class="fil17"
   d="m 8710,7095 c 0,-247 118,-466 301,-602 -27,16 -52,33 -74,50 -238,181 -332,490 -259,780 1,3 2,6 2,9 61,232 245,411 477,472 50,13 98,21 143,24 -337,-71 -590,-372 -590,-733 z"
   id="path170" />
    <path
   class="fil17"
   d="m 9595,8105 c -17,26 -47,41 -78,41 -31,0 -59,-2 -81,-6 4,2 9,5 14,7 49,25 106,34 160,23 0,0 1,0 1,0 0,0 -22,17 -57,33 0,0 51,0 106,-22 v -117 c 0,0 -20,4 -52,8 -3,13 -8,23 -14,32 z"
   id="path172" />
    <path
   class="fil18"
   d="m 9839,7418 c 0,0 114,-64 174,-179 60,-116 -29,136 -29,136 0,0 -50,35 -145,44 z"
   id="path174" />
    <path
   class="fil18"
   d="m 9869,8659 c 0,0 -180,-81 -320,22 0,0 9,11 19,31 43,-22 216,-93 389,62 0,0 -22,-58 -89,-115 z"
   id="path176" />
    <path
   class="fil18"
   d="m 9770,8263 c 41,5 72,38 77,79 3,21 5,48 4,78 0,0 101,12 182,170 -1,-26 -7,-52 -20,-75 -61,-110 -140,-130 -140,-130 2,-4 5,-9 7,-13 16,-32 13,-71 -10,-99 0,0 -1,-1 -1,-1 -18,-22 -48,-30 -75,-22 -14,4 -26,8 -37,13 4,0 8,0 12,1 z"
   id="path178" />
    <path
   class="fil18"
   d="m 9796,9319 c -107,-8 -175,-37 -207,-54 5,13 14,23 26,29 28,14 87,33 181,25 z"
   id="path180" />
    <path
   class="fil18"
   d="m 8155,5497 c 0,0 182,-96 397,-21 0,0 18,163 -142,280 -13,10 -31,12 -46,5 -50,-23 -164,-93 -208,-264 z"
   id="path182" />
    <path
   class="fil18"
   d="m 7402,6409 c 0,0 244,17 560,388 18,21 52,4 46,-23 -21,-92 -90,-238 -302,-353 -62,-33 -132,-47 -201,-37 -33,5 -69,12 -102,25 z"
   id="path184" />
    <path
   class="fil18"
   d="m 6549,7335 c 0,0 76,200 339,213 0,0 -61,36 -174,39 -87,3 -164,-63 -172,-150 -3,-29 -1,-62 7,-102 z"
   id="path186" />
    <path
   class="fil18"
   d="m 8611,8289 c 0,0 -354,-5 -567,79 -43,17 -77,-37 -42,-68 24,-21 65,-41 134,-56 115,-25 234,-21 348,8 40,10 84,23 127,37 z"
   id="path188" />
    <path
   class="fil18"
   d="m 7444,8394 c 0,0 -53,7 -127,-9 0,0 -34,25 -109,42 0,0 129,25 236,-33 z"
   id="path190" />
    <path
   class="fil18"
   d="m 7160,8347 c 2,0 4,0 6,0 -15,-12 -27,-27 -36,-46 -42,-32 -84,-74 -121,-131 5,31 12,57 18,78 17,59 71,101 133,99 z"
   id="path192" />
    <path
   class="fil18"
   d="m 4788,9779 c 0,0 -53,50 -89,114 0,0 172,-153 391,-62 9,-19 17,-29 17,-29 -157,-97 -320,-23 -320,-23 z"
   id="path194" />
    <path
   class="fil18"
   d="m 4625,9710 c 22,-50 75,-141 186,-168 0,0 -9,-38 -1,-82 6,-36 36,-65 72,-71 8,-1 18,-2 29,-2 -14,-6 -26,-11 -38,-14 -40,-12 -86,7 -101,46 -17,44 13,86 13,86 -127,63 -154,156 -158,205 z"
   id="path196" />
    <path
   class="fil18"
   d="m 5069,10392 c -1,1 -3,1 -4,2 -81,34 -169,52 -257,44 -24,-2 -44,-5 -61,-9 18,12 39,20 62,22 111,13 225,-3 225,-3 17,-18 27,-38 34,-57 z"
   id="path198" />
    <path
   class="fil18"
   d="m 8307,12226 c 0,0 -44,-175 -63,-278 0,0 -7,1 -15,9 -13,12 -19,29 -18,46 3,51 18,182 96,222 z"
   id="path200" />
    <path
   class="fil18"
   d="m 7110,12249 c 0,0 -15,35 -25,94 -4,24 -5,49 -5,73 -1,28 -5,82 -29,120 -12,19 -40,17 -49,-3 -4,-8 -7,-19 -10,-32 -11,-57 3,-115 34,-163 20,-30 47,-64 83,-89 z"
   id="path202" />
    <path
   class="fil18"
   d="m 6824,12243 c -39,61 -70,128 -88,198 -17,67 -22,126 -20,178 12,-15 30,-35 48,-57 -10,-125 33,-253 60,-319 z"
   id="path204" />
    <path
   class="fil18"
   d="m 6905,12807 c -66,-41 -104,-97 -124,-158 -20,21 -40,41 -53,54 6,26 16,50 29,72 69,38 149,32 149,32 z"
   id="path206" />
    <path
   class="fil18"
   d="m 7249,13344 c -53,-101 -100,-174 -134,-224 66,145 115,302 115,302 -63,110 -163,236 -204,285 -11,14 -27,22 -45,24 42,16 67,35 67,35 85,-107 159,-229 200,-300 22,-38 22,-84 2,-123 z"
   id="path208" />
    <path
   class="fil18"
   d="m 9307,13642 c 14,34 53,105 150,160 -35,-77 -78,-166 -78,-166 -25,3 -49,5 -72,7 z"
   id="path210" />
    <path
   class="fil18"
   d="m 10759,11906 c 32,168 4,300 -41,398 -53,113 -146,199 -258,250 37,-9 85,-23 134,-48 128,-66 204,-200 205,-344 0,-72 -8,-164 -39,-255 z"
   id="path212" />
    <path
   class="fil8"
   d="m 6059,7274 c 0,0 31,44 107,40 0,0 12,47 23,76 0,0 -19,10 -47,12 -33,2 -64,-18 -75,-49 -6,-18 -10,-44 -8,-79 z"
   id="path214" />
    <path
   class="fil8"
   d="m 7753,9043 c 0,0 -3,69 -21,140 0,0 9,15 28,35 64,67 159,93 249,73 89,-19 237,-72 422,-214 0,0 -446,117 -678,-34 z"
   id="path216" />
    <path
   class="fil8"
   d="m 9801,8024 6,41 c 0,0 47,25 53,149 0,0 138,-193 195,-336 -64,61 -169,115 -254,146 z"
   id="path218" />
    <path
   class="fil8"
   d="m 9235,8593 c -49,34 -94,61 -130,81 -38,40 -115,102 -236,121 -75,12 -144,-47 -142,-122 1,-31 12,-70 38,-116 0,-2 0,-4 0,-6 -9,-98 -115,-155 -204,-114 -80,37 -99,109 -102,131 34,25 55,52 68,75 24,40 25,89 3,131 -2,3 -3,6 -5,8 -24,39 -68,61 -114,63 -244,10 -426,-86 -426,-86 -157,-16 -291,-45 -291,-45 203,-35 362,-130 362,-130 -969,117 -1217,-506 -1217,-506 0,0 89,-63 247,24 -49,-54 -74,-96 -74,-96 241,180 427,208 427,208 -158,-285 -485,-312 -579,-314 -31,-1 -61,-2 -92,-5 -239,-24 -354,-100 -407,-153 0,0 253,964 1751,1195 104,16 211,17 315,-3 35,-7 71,-16 106,-28 46,-17 78,-60 78,-109 0,-37 -2,-87 -10,-143 -7,-48 -9,-97 -3,-145 1,-12 3,-24 5,-36 0,0 23,45 40,104 6,21 9,44 10,66 1,31 5,83 12,139 11,81 85,138 166,126 26,-4 56,-10 90,-18 65,-16 129,-38 191,-64 40,-17 87,-38 124,-58 l -1,-171 z"
   id="path220" />
    <path
   class="fil8"
   d="m 9134,8141 c -23,-6 -46,-10 -67,-14 86,34 148,53 181,63 4,-9 8,-18 13,-27 -22,-2 -43,-5 -61,-8 -22,-3 -44,-8 -65,-13 z"
   id="path222" />
    <path
   class="fil8"
   d="m 9782,5561 c -66,-41 -152,-30 -206,26 -39,41 -88,101 -140,190 -58,99 -188,111 -268,19 -52,-60 -97,-168 -115,-232 -27,-93 -82,-259 -207,-357 -54,62 -116,105 -148,122 -3,2 -6,3 -9,4 39,11 99,38 151,106 168,110 178,377 178,377 0,0 23,-68 23,-134 0,0 55,99 81,242 60,45 211,126 367,-54 0,0 -4,44 -43,92 -4,5 -8,9 -13,14 v 0 c 0,0 86,-73 144,-256 16,-50 61,-147 134,-161 0,0 -56,29 -81,139 0,0 16,-22 54,-40 50,-24 110,-14 151,22 1,1 2,1 2,2 64,58 89,147 69,230 -16,67 -51,163 -120,250 69,25 135,56 197,95 0,0 27,-44 44,-125 30,-148 -3,-303 -90,-427 -37,-52 -87,-106 -154,-147 z"
   id="path224" />
    <path
   class="fil8"
   d="m 5965,7287 c 2,-59 14,-110 14,-110 -76,-213 -294,-234 -294,-234 123,43 177,150 200,218 16,48 44,91 80,126 z"
   id="path226" />
    <path
   class="fil8"
   d="m 6085,7627 c 69,28 147,50 236,61 0,0 -56,-64 -64,-177 -20,-28 -35,-53 -35,-53 -78,46 -139,32 -180,6 -12,-8 -23,-17 -32,-27 56,107 132,106 132,106 -3,45 -28,70 -58,84 z"
   id="path228" />
    <path
   class="fil8"
   d="m 6850,7722 c 50,-22 109,-67 109,-67 -99,14 -181,9 -248,-5 -141,-29 -246,-147 -268,-289 -31,-209 -11,-382 10,-487 13,-64 74,-106 138,-94 137,26 219,63 259,86 51,-22 105,-36 161,-41 12,-1 24,-2 38,-3 0,0 -161,-78 -306,-136 -111,-45 -215,-108 -303,-190 -38,-35 -76,-77 -109,-124 0,0 -6,270 -259,358 0,0 124,100 271,188 0,0 -111,-20 -224,-45 16,29 19,55 15,77 -8,49 -54,82 -103,80 -17,-1 -33,-3 -48,-6 24,23 42,48 59,74 68,103 121,135 121,135 23,-153 110,-231 110,-231 -33,171 -12,277 8,332 19,-53 49,-111 95,-173 0,0 -46,160 -20,322 22,136 127,244 263,271 71,14 168,28 294,37 48,3 96,10 142,21 -117,-68 -206,-90 -206,-90 z"
   id="path230" />
    <path
   class="fil8"
   d="m 8671,7786 c 71,101 134,152 134,152 -80,4 -191,7 -279,9 -175,5 -350,25 -521,66 -160,38 -260,80 -312,105 20,22 45,42 75,58 0,0 148,-92 392,-115 21,-2 43,-3 64,-3 54,0 169,0 288,-2 66,-1 131,-8 195,-20 95,-18 257,-41 393,-16 -144,-52 -268,-134 -368,-237 -16,4 -38,7 -61,3 z"
   id="path232" />
    <path
   class="fil8"
   d="m 5685,6942 c 5,0 10,0 16,-1 -10,0 -16,1 -16,1 z"
   id="path234" />
    <path
   class="fil8"
   d="m 8701,7750 c -19,-22 -37,-44 -54,-68 -4,2 -8,4 -11,5 -8,2 -16,3 -25,3 19,35 39,66 59,93 6,-3 22,-13 32,-34 z"
   id="path236" />
    <path
   class="fil8"
   d="m 8430,6133 c -270,-68 -398,-261 -398,-261 25,100 48,166 48,166 0,0 103,133 291,188 45,13 93,9 135,-11 58,-28 144,-77 211,-144 21,-86 29,-169 29,-169 -136,189 -315,232 -315,232 z"
   id="path238" />
    <path
   class="fil8"
   d="m 8519,6355 c 15,-28 27,-64 33,-88 -9,7 -18,15 -28,22 -43,31 -98,39 -148,22 -21,-7 -46,-18 -72,-33 26,57 48,85 48,85 -143,-73 -219,-172 -219,-172 40,73 79,133 104,169 34,16 72,34 114,50 56,22 118,22 174,-1 31,-13 68,-29 107,-48 33,-71 43,-140 43,-140 -50,74 -158,135 -158,135 z"
   id="path240" />
    <path
   class="fil8"
   d="m 8023,5123 c 83,-9 316,-28 550,1 105,-41 205,-31 205,-31 l -99,-298 c -415,-245 -837,0 -837,0 -25,106 -76,303 -76,303 114,-48 217,0 257,24 z"
   id="path242" />
    <path
   class="fil8"
   d="m 8773,5163 c -18,-8 -38,-15 -59,-21 -70,15 -130,60 -166,122 -11,20 -21,43 -26,67 0,0 53,-11 105,-7 -2,-1 -4,-3 -5,-5 -5,-5 -7,-8 -7,-8 h 1 c 17,11 39,9 54,-5 63,-59 92,-115 103,-144 z"
   id="path244" />
    <path
   class="fil8"
   d="m 8552,6528 c 5,-21 10,-41 13,-57 -11,8 -22,15 -34,21 -54,31 -120,30 -174,-1 -24,-14 -52,-31 -84,-53 38,64 64,101 64,101 -139,-63 -209,-142 -209,-142 58,95 109,150 109,150 -46,8 -89,10 -126,9 18,6 35,12 54,19 75,26 128,57 165,87 55,45 78,117 61,186 -40,163 -173,227 -173,227 51,-104 68,-211 73,-272 3,-33 -13,-65 -42,-83 -33,-20 -72,-41 -111,-61 47,153 33,252 3,315 -35,75 -127,103 -202,67 -194,-93 -163,-314 -163,-314 -73,64 -89,144 -89,144 -208,-204 -439,-307 -666,-418 -298,-145 -408,-322 -448,-400 -11,-21 -18,-43 -21,-67 0,-3 -1,-7 -1,-10 -13,-147 134,-259 270,-203 28,12 44,24 44,24 -57,-105 -123,-132 -123,-132 0,0 173,-10 345,265 0,0 261,95 412,-58 0,0 20,-73 37,-132 0,0 42,132 119,206 0,0 -13,-48 -22,-130 -19,-59 -25,-118 -26,-164 -2,-65 22,-129 70,-175 48,-46 95,-66 95,-66 -8,10 -15,21 -21,32 77,-43 211,-83 379,7 0,0 -79,-190 -331,-227 0,0 33,-38 104,-80 -124,25 -298,108 -389,370 0,0 -31,127 -102,242 -67,109 -210,140 -314,66 -44,-31 -93,-75 -146,-138 0,0 -25,-31 -67,-64 -80,-62 -190,-69 -279,-21 -55,30 -119,76 -174,148 -95,123 -118,289 -58,432 47,111 143,246 338,360 54,31 112,55 170,79 108,46 353,149 603,370 114,101 278,222 450,263 76,18 158,-5 209,-65 13,-15 25,-31 35,-50 0,0 31,261 -280,229 0,0 -97,163 -367,214 -155,29 -315,10 -456,-60 -53,-26 -109,-62 -156,-109 -75,-74 -81,-194 -23,-281 40,-60 103,-129 202,-189 0,0 -228,-18 -493,90 -41,38 -77,74 -77,74 102,-30 204,-31 246,-29 24,-18 43,-27 43,-27 -129,210 43,378 43,378 159,201 362,253 362,253 0,0 488,115 738,-216 0,0 -16,58 -64,126 -8,11 -17,22 -26,33 111,-83 195,-108 195,-108 -4,25 -5,49 -5,68 1,59 39,113 96,130 2,1 3,1 5,1 -7,-11 -13,-22 -18,-32 -18,-38 -20,-82 -6,-121 20,-55 50,-85 77,-102 25,-16 59,-3 66,26 24,97 81,149 132,178 -24,-27 -37,-62 -42,-82 -9,-31 -20,-61 -35,-91 -12,-25 -21,-38 -21,-38 38,-5 75,0 75,0 -101,-78 -189,-104 -189,-104 116,-108 172,-217 172,-217 33,5 64,4 84,2 0,-10 -1,-19 -1,-29 0,-245 89,-468 236,-641 10,-33 18,-61 18,-61 -49,72 -158,131 -158,131 z"
   id="path246" />
    <path
   class="fil8"
   d="m 8548,7676 c 6,4 25,10 25,10 19,-5 40,-16 56,-29 -63,-92 -110,-195 -139,-303 20,109 54,203 92,281 -15,30 -34,41 -34,41 z"
   id="path248" />
    <path
   class="fil8"
   d="m 8275,7793 c 0,0 0,0 0,0 0,0 0,0 0,0 z"
   id="path250" />
    <path
   class="fil8"
   d="m 8263,7786 c -9,-7 -17,-17 -20,-29 -6,-19 -7,-46 1,-85 0,0 -14,15 -25,36 -8,15 -7,33 4,46 8,9 21,21 40,32 z"
   id="path252" />
    <path
   class="fil8"
   d="m 9537,7575 c 0,0 -8,8 -23,20 v 0 c 204,-113 269,-252 285,-297 -18,10 -30,15 -30,15 114,-161 25,-377 25,-377 14,8 25,16 36,25 95,-31 189,-7 189,-7 -57,-68 -138,-115 -138,-115 0,0 0,0 0,0 20,15 39,31 57,50 0,0 -132,-61 -368,-41 0,0 82,37 148,133 75,110 67,257 -15,362 -97,125 -289,254 -645,133 l -76,-133 c -40,11 -73,14 -95,15 0,0 0,1 1,1 42,88 114,159 201,202 110,54 259,81 447,13 z"
   id="path254" />
    <path
   class="fil8"
   d="m 9841,7491 c -42,5 -94,0 -94,0 21,14 40,28 40,28 -59,23 -113,59 -144,81 -19,14 -42,23 -66,26 -45,5 -86,5 -113,4 -41,25 -97,52 -164,65 47,11 96,18 147,18 48,0 95,-6 140,-16 32,-35 121,-117 258,-129 52,-43 96,-95 131,-153 -75,39 -135,77 -135,77 z"
   id="path256" />
    <path
   class="fil8"
   d="m 9820,6601 c -59,31 -118,75 -176,125 0,0 51,12 116,42 62,-47 111,-73 147,-86 -27,-30 -56,-57 -88,-81 z"
   id="path258" />
    <path
   class="fil8"
   d="m 9707,6534 c -77,-36 -163,-56 -253,-57 -194,133 -361,372 -361,372 -52,-87 -91,-125 -91,-125 36,270 -105,320 -172,328 -4,57 0,112 11,164 5,25 29,41 53,36 57,-11 140,-41 229,-120 33,-29 61,-62 86,-98 78,-109 309,-417 499,-500 z"
   id="path260" />
    <path
   class="fil8"
   d="m 10496,7210 c -40,-283 85,-408 143,-450 2,-26 5,-55 12,-90 -41,16 -72,30 -72,30 0,0 -101,58 -172,167 26,112 41,261 7,432 0,0 23,-19 54,-54 10,-11 19,-23 28,-35 z"
   id="path262" />
    <path
   class="fil8"
   d="m 10334,6661 c 0,0 22,39 45,107 15,-7 39,-17 70,-28 -45,-27 -48,-71 -44,-100 -23,6 -47,13 -71,21 z"
   id="path264" />
    <path
   class="fil8"
   d="m 9670,8322 c -57,59 -66,127 -66,127 0,0 79,25 79,107 0,0 82,8 154,70 59,-5 106,1 140,8 -13,-7 -21,-9 -21,-9 48,-7 76,-1 76,-1 l 1,-13 c 3,-33 -3,-67 -20,-96 -6,-11 -12,-20 -18,-30 -10,36 -49,57 -86,48 -55,-14 -104,-26 -104,-26 -7,-11 -17,-23 -25,-33 -13,-15 -30,-27 -49,-35 -16,-7 -28,-14 -38,-19 -25,-15 -38,-45 -31,-73 2,-9 5,-17 8,-25 z"
   id="path266" />
    <path
   class="fil8"
   d="m 9992,9050 c 33,-40 54,-82 68,-121 -18,-104 -87,-128 -87,-128 20,50 12,84 -6,108 -30,39 -87,44 -128,17 -55,-37 -94,-49 -94,-49 73,-18 98,-67 98,-67 -73,18 -121,-26 -121,-26 -108,-23 -124,-90 -124,-130 -17,7 -33,16 -49,28 0,0 80,93 25,247 0,0 136,72 227,-21 0,0 -10,82 -114,120 0,0 0,16 -4,36 -5,28 -23,51 -49,62 -14,6 -31,13 -50,19 0,0 -7,36 -4,77 6,-1 13,-3 18,-4 43,-11 84,-31 121,-55 33,-21 61,-37 84,-49 37,-20 83,-17 116,10 28,23 47,48 60,70 0,-4 0,-7 0,-11 -5,-57 -28,-125 -104,-159 0,0 58,-6 116,28 z"
   id="path268" />
    <path
   class="fil8"
   d="m 5056,9776 c 0,1 0,2 0,2 -8,80 -73,142 -153,152 -26,3 -57,4 -90,-4 0,0 29,49 98,72 0,0 -46,22 -92,46 -31,16 -67,19 -98,4 -32,-15 -59,-48 -42,-122 0,0 -75,31 -81,132 14,35 36,74 70,112 45,-25 113,-31 113,-31 -5,3 -10,7 -14,10 -42,31 -72,76 -83,126 0,1 -1,2 -1,4 -2,11 -3,22 -3,32 13,-23 30,-46 52,-65 31,-27 74,-35 112,-18 20,9 45,23 75,43 37,24 98,58 160,74 3,-45 -10,-80 -10,-80 -109,-25 -98,-115 -98,-115 -88,-39 -110,-114 -110,-114 97,77 229,17 229,17 -62,-149 18,-252 18,-252 -17,-11 -34,-19 -51,-26 z"
   id="path270" />
    <path
   class="fil8"
   d="m 4625,9744 c 0,0 38,-7 83,5 0,0 49,-2 110,0 81,-74 161,-64 161,-64 -7,-93 77,-104 77,-104 -12,-66 -41,-112 -73,-144 4,10 8,21 11,33 7,30 -8,61 -35,75 -11,5 -23,11 -36,17 -21,10 -48,25 -65,68 0,0 -53,9 -103,24 -35,11 -74,-6 -87,-40 -1,-3 -2,-6 -3,-9 -48,71 -39,138 -39,138 z"
   id="path272" />
    <path
   class="fil8"
   d="m 7255,12788 c -89,77 -207,114 -323,93 -44,-8 -92,-24 -138,-53 50,56 120,93 198,102 225,25 374,-135 374,-135 -103,184 -293,239 -293,239 0,0 163,-33 258,-106 0,0 26,21 58,66 53,77 80,168 82,262 1,43 0,95 -5,147 0,0 -36,-55 -91,-106 0,0 15,19 27,66 18,73 9,150 -21,219 -3,8 -7,15 -10,23 -25,53 -63,98 -110,133 -10,7 -21,15 -33,23 78,51 120,133 120,133 72,-123 192,-240 249,-293 28,-26 48,-60 56,-97 10,-46 9,-92 -3,-138 -6,-26 -17,-50 -30,-74 -128,-252 -161,-501 -161,-501 164,-200 124,-396 124,-396 -50,190 -216,258 -216,258 0,0 -39,70 -113,134 z"
   id="path274" />
    <path
   class="fil8"
   d="m 7157,12621 c 42,40 100,56 157,47 18,-3 36,-7 53,-14 122,-134 118,-308 118,-308 -70,200 -286,184 -286,184 0,0 -61,0 -118,-27 0,0 16,62 75,118 z"
   id="path276" />
    <path
   class="fil8"
   d="m 8155,12257 c -22,-85 -50,-220 -65,-388 0,0 80,49 154,79 0,0 45,260 105,402 0,0 -101,-101 -150,-166 0,0 9,70 37,158 82,225 277,391 277,391 -149,-442 -189,-830 -189,-830 -388,-161 -591,-451 -591,-451 -243,295 -704,470 -704,470 -36,79 -100,174 -150,242 33,-43 98,-121 168,-170 66,-46 175,-34 209,39 53,110 102,354 -57,498 348,-132 176,-586 176,-586 264,226 554,178 554,178 -7,-167 50,-325 50,-325 -1,9 -1,19 -2,28 -5,132 16,264 58,389 114,340 291,468 291,468 -24,-50 -42,-99 -55,-145 -12,-19 -26,-42 -41,-71 -34,-66 -59,-136 -78,-209 z"
   id="path278" />
    <path
   class="fil8"
   d="m 6958,12698 c -50,-233 67,-449 67,-449 -63,72 -93,137 -93,137 -59,155 -22,253 27,312 z"
   id="path280" />
    <path
   class="fil8"
   d="m 9316,13813 c -58,-32 -120,-85 -141,-171 -91,-5 -148,-20 -148,-20 0,125 -34,233 -34,233 33,-22 63,-36 88,-45 45,-16 96,-6 129,30 7,7 10,12 10,12 l 1,-1 c 22,-29 59,-43 95,-38 z"
   id="path282" />
    <path
   class="fil8"
   d="m 9999,12727 c 247,77 429,41 558,-31 51,-28 95,-63 134,-104 -152,105 -346,122 -459,122 -135,22 -233,13 -233,13 z"
   id="path284" />
    <path
   class="fil8"
   d="m 9941,12635 c 283,91 560,-2 560,-2 0,0 38,-17 82,-40 0,0 -90,9 -209,-9 -21,6 -43,10 -64,13 -453,68 -728,-346 -728,-346 13,36 26,68 40,96 63,136 178,242 320,288 z"
   id="path286" />
    <path
   class="fil8"
   d="m 10501,12633 c 0,0 -1,0 -1,1 1,0 1,-1 1,-1 z"
   id="path288" />
    <path
   class="fil19"
   d="m 5026,6841 c 0,0 -77,-220 43,-592 l 2,-156 c -223,329 -217,550 -217,550 -205,-75 -259,-276 -272,-402 -10,-53 -10,-90 -10,-90 0,0 -34,595 455,689 z"
   id="path290" />
    <path
   class="fil19"
   d="m 5390,6452 c -26,282 -225,236 -295,211 12,54 29,107 52,157 13,29 43,46 75,45 3,0 5,0 8,0 60,-4 111,-45 134,-101 24,-59 45,-159 25,-312 z"
   id="path292" />
    <path
   class="fil19"
   d="m 5551,6281 c -157,-139 -263,-188 -263,-188 l 19,35 c 0,0 29,33 67,87 66,92 105,201 109,315 4,92 -7,201 -59,288 l 59,-5 c 0,0 30,-33 71,-102 83,-141 129,-301 140,-464 7,-98 7,-223 -10,-362 -11,259 -134,397 -134,397 z"
   id="path294" />
    <path
   class="fil20"
   d="m 5233,5748 c -22,0 -36,23 -36,40 0,13 9,24 16,34 7,11 10,22 12,36 8,-11 17,-23 25,-34 7,-9 11,-23 12,-35 2,-17 -14,-41 -30,-41 z"
   id="path296" />
    <path
   class="fil20"
   d="m 5336,5812 c 2,14 18,40 35,10 5,-9 2,-32 -27,-90 0,0 -15,44 -9,80 z"
   id="path298" />
    <path
   class="fil20"
   d="m 5207,5075 c 0,0 63,300 -114,508 21,-13 40,-27 56,-41 71,-62 111,-152 112,-247 2,-149 -54,-221 -54,-221 z"
   id="path300" />
    <path
   class="fil20"
   d="m 5287,5593 c 0,0 -23,-59 6,-135 0,0 23,26 -6,135 z"
   id="path302" />
    <path
   class="fil20"
   d="m 5495,5533 c 25,-67 26,-141 2,-208 -5,-14 -12,-30 -19,-46 16,202 -47,329 -47,329 v 32 c 0,0 37,-33 64,-106 z"
   id="path304" />
    <path
   class="fil20"
   d="m 4912,5465 c -12,19 -23,39 -34,58 46,-37 111,-103 161,-201 7,10 17,18 31,22 16,4 34,0 48,-9 23,-15 56,-49 56,-119 0,-18 -4,-37 -15,-51 -10,-14 -28,-28 -57,-32 19,-104 17,-230 -21,-379 -15,-19 -24,-29 -24,-29 38,401 -102,668 -145,739 z"
   id="path306" />
    <path
   class="fil17"
   d="m 5409,6974 c -47,-4 -106,-4 -161,-3 28,86 12,135 -11,162 -16,19 -40,30 -65,33 -50,6 -96,13 -123,17 1,1 1,2 1,2 203,8 361,-13 361,-13 60,-94 -3,-198 -3,-198 z"
   id="path308" />
    <path
   class="fil17"
   d="m 5673,8622 c 0,0 178,-143 8,-446 l -280,4 c 11,40 28,118 29,215 1,83 -46,161 -120,199 -23,12 -51,24 -84,35 l 448,-7 z"
   id="path310" />
    <path
   class="fil21"
   d="m 5131,6975 c -45,2 -75,4 -75,4 -72,114 -6,206 -6,206 25,1 49,1 73,2 -23,-29 -65,-107 8,-212 z"
   id="path312" />
    <path
   class="fil21"
   d="m 4967,8633 c -31,-57 -102,-225 -4,-446 l -45,1 c -169,291 37,446 37,446 h 12 z"
   id="path314" />
    <path
   class="fil22"
   d="m 9473,9106 c 52,-2 102,-26 136,-66 20,-23 28,-39 28,-39 -44,-4 -96,-15 -143,-27 -4,38 -35,68 -73,70 -14,1 -32,1 -52,0 l 3,59 c 40,4 74,4 102,3 z"
   id="path316" />
    <path
   class="fil22"
   d="m 9561,8521 c -31,-34 -70,-58 -114,-71 3,32 8,95 12,153 72,-39 125,-53 125,-53 -8,-11 -16,-20 -23,-29 z"
   id="path318" />
    <path
   class="fil22"
   d="m 9526,9391 c 23,-1 45,-8 63,-21 23,-16 35,-31 35,-31 -38,2 -78,1 -114,-3 -8,17 -26,35 -70,33 14,12 32,19 51,21 13,1 25,1 35,1 z"
   id="path320" />
    <path
   class="fil22"
   d="m 5590,7954 c -25,-185 -59,-369 -103,-550 -21,-88 -33,-129 -33,-129 -54,6 -106,10 -155,12 49,90 153,348 39,742 151,-2 262,-5 262,-5 -3,-24 -6,-47 -10,-70 z"
   id="path322" />
    <path
   class="fil22"
   d="m 5287,14234 h 145 c 44,0 80,-34 82,-78 17,-312 82,-1476 99,-1903 23,-588 59,-1765 62,-2353 3,-520 -16,-1143 -16,-1143 l -357,3 c 45,77 134,285 155,731 27,31 52,67 72,108 0,0 -187,-74 -350,-6 0,0 -11,39 -72,71 0,0 46,32 69,88 0,0 32,5 79,21 21,-46 75,-108 216,-111 0,0 2,107 1,240 24,22 47,48 68,77 0,0 -92,79 -256,104 -43,7 -103,19 -167,74 0,0 12,26 72,59 63,-4 168,-23 283,-87 0,0 4,89 0,173 7,1 15,3 23,4 0,0 -163,213 -535,281 0,0 242,109 513,-98 l -26,1404 c 0,0 -128,-423 -232,-700 0,0 210,829 123,2135 -13,192 -50,383 -115,564 -9,24 -18,48 -27,71 8,88 15,161 19,209 3,36 34,64 70,64 z"
   id="path324" />
    <path
   class="fil23"
   d="m 5033,7360 c -37,205 -62,412 -75,619 -2,34 -3,55 -3,55 22,0 44,0 67,0 2,-47 5,-94 8,-142 38,-11 67,-53 67,-103 0,-43 -21,-80 -51,-97 14,-143 33,-282 59,-401 -36,-1 -57,-2 -57,-2 -4,22 -9,46 -14,71 z"
   id="path326" />
    <path
   class="fil23"
   d="m 5076,11365 c -6,-201 -16,-532 -28,-706 l -83,5 c 13,270 24,507 35,721 l 75,-20 z"
   id="path328" />
    <path
   class="fil23"
   d="m 5189,13351 c -21,-455 -76,-1229 -109,-1818 l -71,15 c 21,393 41,705 63,992 22,287 83,963 120,1369 3,-152 4,-377 -4,-558 z"
   id="path330" />
    <path
   class="fil23"
   d="m 4932,8763 v 448 c 0,0 39,10 83,39 v -488 z"
   id="path332" />
    <path
   class="fil24"
   d="m 7612,9043 c 0,0 -24,18 -54,49 -12,12 -21,27 -28,42 2,1 23,9 56,24 0,0 7,-68 27,-116 z"
   id="path334" />
    <path
   class="fil24"
   d="m 7993,9871 c -7,4 -14,8 -21,11 0,0 6,80 17,138 0,0 102,-52 198,-107 51,-30 99,-65 142,-107 4,-4 8,-8 12,-12 0,0 -59,100 -166,196 0,0 186,-70 286,-138 0,0 29,-156 89,-315 l 1,-3 c -18,12 -41,27 -68,44 -166,335 -416,309 -489,292 z"
   id="path336" />
    <path
   class="fil24"
   d="m 8689,9050 c 0,0 -127,102 -305,205 -45,179 -296,328 -369,368 -1,32 -4,67 -10,107 0,0 397,-198 623,-410 0,0 29,-131 62,-270 z"
   id="path338" />
    <path
   class="fil24"
   d="m 7548,9350 c -9,-46 15,-91 55,-109 -6,-8 -12,-15 -17,-23 l -56,-83 c -13,32 -39,95 -64,164 24,50 84,170 170,281 -30,-54 -69,-137 -87,-230 z"
   id="path340" />
    <path
   class="fil24"
   d="m 7564,9933 c -29,-22 -52,-46 -70,-70 -35,-49 -55,-106 -61,-166 -10,-101 -7,-208 -6,-252 -9,-19 -18,-39 -27,-60 0,0 -53,106 -74,388 23,61 70,161 165,272 0,0 -39,-98 -61,-252 0,0 40,107 114,190 0,0 7,-19 19,-49 z"
   id="path342" />
    <path
   class="fil25"
   d="m 7900,10038 c 0,0 -13,-154 -32,-274 0,0 -27,-4 -62,-15 9,61 12,215 -139,343 6,43 14,93 24,143 h 38 c 0,0 103,-64 87,-201 0,0 25,40 27,132 0,0 39,-74 58,-128 z"
   id="path344" />
    <path
   class="fil25"
   d="m 7927,9588 c 0,0 13,-35 17,-92 0,0 -5,-4 -15,-11 -15,-10 -31,-17 -49,-21 -2,94 -92,111 -131,115 -1,7 -2,15 -3,22 0,0 42,16 99,23 7,1 14,-2 19,-7 11,-14 26,-43 -8,-82 0,0 48,10 71,54 z"
   id="path346" />
    <path
   class="fil26"
   d="m 8093,10586 c 0,0 79,7 126,-76 17,-29 24,-63 24,-97 v -41 c 0,0 -129,40 -150,214 z"
   id="path348" />
    <path
   class="fil26"
   d="m 7477,10678 c 0,0 -14,-7 -32,-17 -33,-19 -54,-53 -58,-90 -3,-35 -7,-82 -7,-130 0,0 84,79 96,237 z"
   id="path350" />
    <path
   class="fil27"
   d="m 7695,11280 c 158,-393 26,-919 26,-919 0,0 -46,-17 -110,-58 21,37 38,73 51,109 25,10 42,34 42,63 0,15 -5,28 -12,39 17,81 18,151 16,195 -1,28 -5,56 -13,83 -14,48 -35,84 -59,113 32,5 56,34 56,68 0,38 -30,69 -67,69 -37,0 -67,-31 -67,-69 0,-1 0,-3 0,-4 -10,5 -19,10 -26,13 -20,9 -44,5 -61,-10 -49,-42 -83,-90 -105,-131 -27,-49 -40,-105 -40,-161 3,-291 1,-554 0,-664 -11,-18 -21,-36 -31,-55 0,0 -57,307 -5,879 19,209 17,520 -81,836 0,0 298,-159 485,-398 z"
   id="path352" />
    <path
   class="fil27"
   d="m 8443,10254 c 0,0 20,-161 45,-300 -29,10 -58,20 -85,31 -25,126 -44,254 -57,340 -41,274 -117,650 -117,650 -102,-1 -172,-54 -219,-111 -52,-63 -80,-143 -85,-225 -13,-208 28,-355 60,-435 -118,84 -172,149 -172,149 0,0 148,512 2,949 0,0 136,252 420,128 0,0 -45,81 -185,116 0,0 110,87 275,168 0,0 -34,-293 -7,-700 0,0 31,-396 123,-760 z"
   id="path354" />
    <path
   class="fil28"
   d="m 6961,10032 c 0,0 -20,-41 -40,-102 -14,-43 -12,-91 11,-131 6,-11 15,-22 25,-32 8,-8 23,-2 23,10 0,13 0,29 0,48 0,48 -3,97 -12,145 -3,19 -6,41 -7,63 z"
   id="path356" />
    <path
   class="fil28"
   d="m 6605,9521 c 0,0 15,-3 43,-5 83,-77 350,-313 640,-471 -104,37 -469,185 -683,475 z"
   id="path358" />
    <path
   class="fil28"
   d="m 9274,9324 c -21,-53 -54,-124 -106,-194 3,11 6,24 10,40 13,48 30,95 51,140 15,32 34,72 50,109 0,0 0,-34 -5,-95 z"
   id="path360" />
    <path
   class="fil28"
   d="m 8830,10235 c 0,0 197,-149 124,-262 -3,-5 -10,-5 -14,-2 -15,15 -40,54 -58,119 -12,45 -15,57 -52,145 z"
   id="path362" />
    <path
   class="fil28"
   d="m 10037,9351 c 15,15 44,37 95,40 0,0 46,74 66,265 3,1 7,1 10,2 0,0 23,-163 -44,-312 0,0 -49,-1 -128,5 z"
   id="path364" />
    <path
   class="fil6"
   d="m 6660,10385 c 0,0 6,-208 82,-314 16,-22 12,-53 -7,-72 -24,-25 -60,-61 -104,-104 0,0 24,-132 48,-216 0,0 -183,94 -296,284 0,0 123,-48 254,-21 0,0 -24,4 -61,16 23,15 67,56 79,146 10,76 -8,154 -47,221 -51,87 -156,203 -356,218 0,0 80,45 184,35 0,0 -8,18 -28,40 -96,108 -271,94 -350,-27 -46,-70 -69,-180 -16,-351 -41,-8 -103,-21 -156,-37 0,0 -5,376 -18,566 0,0 31,45 75,100 46,58 106,102 174,129 l 3,1 c 38,15 81,13 119,-4 19,-9 41,-19 62,-32 0,0 -100,-24 -166,-86 0,0 48,17 133,17 74,0 147,-17 213,-51 30,-15 63,-36 94,-58 40,-29 82,-57 187,-63 0,0 74,-244 -100,-339 z"
   id="path366" />
    <path
   class="fil6"
   d="m 7136,11253 c 0,0 -47,196 -155,341 0,0 42,-102 62,-295 23,-225 9,-447 -57,-663 -5,-16 -10,-33 -16,-50 11,184 2,502 -126,880 0,0 100,-77 163,-175 0,0 -1,243 -278,631 -54,76 -120,167 -190,285 -28,203 -30,332 -30,332 0,0 62,-227 314,-549 141,-180 315,-421 314,-736 z"
   id="path368" />
    <path
   class="fil6"
   d="m 9114,13408 c 33,5 66,12 99,19 106,24 482,80 778,-232 0,0 -60,-20 -147,-74 -169,77 -655,247 -926,-186 0,0 109,67 322,86 0,0 -689,-429 -426,-1459 0,0 -70,87 -110,168 0,0 0,-271 78,-607 -13,-164 4,-341 4,-341 -205,427 -236,950 -236,1234 0,106 9,213 25,318 18,121 31,226 31,226 61,-329 84,-644 84,-644 20,193 27,380 28,531 4,333 -57,664 -182,973 -18,45 -30,71 -30,71 0,0 199,-140 610,-82 z"
   id="path370" />
    <path
   class="fil6"
   d="m 9160,11358 c 0,0 -53,183 -8,371 l 48,62 c -39,-147 -7,-283 13,-346 -16,-30 -34,-59 -53,-88 z"
   id="path372" />
    <path
   class="fil6"
   d="m 10117,10822 c -10,13 -19,24 -28,33 -44,47 -116,52 -166,11 -137,-111 -192,-295 -192,-295 53,24 108,32 108,32 -238,-163 -235,-520 -221,-670 -55,7 -89,8 -89,8 -56,443 66,682 66,682 -35,-32 -65,-66 -91,-98 -62,-78 -100,-173 -111,-272 -7,-60 -11,-111 -11,-111 -156,106 -273,237 -360,369 41,78 57,183 62,270 5,75 1,150 -8,224 -21,165 -26,292 -26,292 v 0 c 15,-61 36,-113 53,-149 30,-63 53,-130 64,-199 48,-289 -87,-416 -87,-416 151,-5 290,147 344,214 26,32 58,60 96,76 50,22 87,22 87,22 9,-62 34,-98 34,-98 33,87 64,145 88,182 29,45 75,78 127,88 23,5 44,6 64,4 70,-5 131,-50 161,-113 7,-16 14,-32 21,-48 6,-14 10,-28 15,-42 z"
   id="path374" />
    <path
   class="fil29"
   d="m 9531,6955 c -24,-19 -54,-23 -81,-15 7,6 13,12 18,19 73,83 60,211 -25,282 -143,120 -276,67 -324,40 -11,7 -22,13 -32,19 0,0 22,32 67,62 72,48 162,59 245,38 61,-15 142,-47 201,-112 65,-71 68,-180 8,-256 -19,-24 -44,-50 -77,-77 z"
   id="path376" />
    <path
   class="fil29"
   d="m 7603,7296 c -30,28 -69,43 -109,50 -162,27 -272,-48 -330,-104 -40,-39 -60,-93 -53,-148 1,-11 4,-21 6,-30 -44,35 -93,84 -124,145 -24,47 -13,104 28,138 25,21 60,45 106,67 88,42 187,59 285,55 113,-6 269,-35 366,-145 0,0 -58,-22 -146,-76 -1,18 -13,35 -28,49 z"
   id="path378" />
    <path
   class="fil29"
   d="m 6862,13817 c -24,35 -69,110 -117,242 -22,61 -78,106 -142,110 -7,31 -9,50 -9,50 29,19 73,22 112,18 54,-4 98,-42 113,-94 50,-177 176,-313 176,-313 -34,-8 -66,-12 -94,-14 -13,-1 -26,-1 -39,1 z"
   id="path380" />
    <path
   class="fil29"
   d="m 7191,13868 c -50,87 -75,158 -105,210 -52,92 -142,119 -185,127 -3,10 -7,19 -10,29 0,0 1,2 4,5 28,31 69,47 110,45 19,-1 43,-2 70,-6 56,-8 102,-48 121,-101 20,-57 49,-134 85,-189 0,0 -20,-74 -90,-120 z"
   id="path382" />
    <path
   class="fil29"
   d="m 9227,14241 c 0,-3 0,-5 0,-8 -15,2 -41,5 -71,0 -102,-17 -160,-127 -124,-224 11,-31 31,-66 64,-103 -7,1 -14,3 -20,8 -46,36 -132,128 -138,312 0,0 77,77 252,55 20,-2 36,-19 36,-39 z"
   id="path384" />
    <path
   class="fil29"
   d="m 9571,14222 c -7,-30 -14,-56 -22,-81 l -28,43 c -38,-1 -66,-24 -85,-48 -26,-34 -39,-77 -38,-120 0,-45 11,-76 19,-93 -20,-11 -42,-17 -65,-15 -7,1 -14,2 -20,4 -42,12 -60,60 -44,101 36,93 39,242 39,242 154,26 244,-32 244,-32 z"
   id="path386" />
    <path
   class="fil29"
   d="m 10737,12936 c -28,28 -102,88 -270,156 0,0 128,-18 266,-110 2,-16 4,-31 5,-46 z"
   id="path388" />
    <path
   class="fil29"
   d="m 11041,12316 c -3,-47 -10,-99 -21,-155 -37,-31 -81,-40 -102,-42 2,25 2,51 2,77 25,19 79,62 121,120 z"
   id="path390" />
    <path
   class="fil29"
   d="m 9864,12775 c -59,-30 -119,-69 -180,-118 0,0 39,88 127,181 12,-12 33,-36 54,-62 z"
   id="path392" />
    <path
   class="fil29"
   d="m 9857,12883 c 59,51 125,90 197,117 19,-19 50,-61 68,-124 -35,-11 -65,-23 -90,-34 -47,-13 -96,-31 -146,-55 -6,22 -18,64 -28,97 z"
   id="path394" />
    <path
   class="fil29"
   d="m 10738,12926 c 4,-100 -23,-176 -42,-217 -14,11 -28,21 -42,31 7,18 21,58 28,120 -55,21 -113,35 -172,43 -4,1 -8,1 -12,1 -2,35 -10,77 -33,117 84,-19 184,-49 273,-95 z"
   id="path396" />
    <path
   class="fil29"
   d="m 10804,12927 c 89,-78 174,-192 219,-357 -42,-90 -106,-130 -135,-145 -7,23 -15,45 -24,67 -1,3 -3,5 -4,8 91,77 95,175 95,175 -26,29 -54,54 -81,76 -24,19 -49,36 -75,52 6,36 9,77 5,123 z"
   id="path398" />
    <path
   class="fil29"
   d="m 10379,13037 c 50,-73 46,-157 41,-194 -24,6 -50,12 -77,16 -2,25 -7,41 -12,52 -59,-3 -110,-10 -156,-21 -13,65 -42,109 -60,130 85,23 174,29 263,17 z"
   id="path400" />
    <path
   class="fil29"
   d="m 9576,8282 c -19,33 -57,47 -95,41 -53,-9 -101,-4 -128,2 -25,16 -50,36 -75,62 0,0 145,-34 269,10 0,0 15,-82 64,-124 0,0 -11,-3 -29,-5 -2,5 -5,11 -7,15 z"
   id="path402" />
    <path
   class="fil29"
   d="m 9491,8801 c -89,30 -165,1 -197,-15 -46,28 -74,53 -74,53 129,67 276,46 276,46 39,-107 -14,-170 -14,-170 15,55 10,87 10,87 z"
   id="path404" />
    <path
   class="fil29"
   d="m 9302,9202 c 0,0 9,10 26,23 28,5 73,11 133,7 18,-1 35,9 41,26 3,8 5,18 6,30 7,0 13,1 20,1 0,0 -13,-45 -13,-102 0,0 -73,29 -213,15 z"
   id="path406" />
    <path
   class="fil29"
   d="m 5164,10005 c 0,0 47,5 116,3 54,-1 108,-17 153,-47 l 1,-1 c 0,0 -23,-24 -65,-51 -86,34 -150,28 -178,23 -10,-2 -18,-11 -20,-21 -5,-37 3,-65 3,-65 0,0 -48,51 -10,159 z"
   id="path408" />
    <path
   class="fil29"
   d="m 5139,10312 c 4,57 -9,101 -9,101 4,0 8,-1 12,-1 3,-10 9,-26 19,-42 7,-10 19,-16 32,-15 26,2 78,4 134,-8 19,-14 29,-25 29,-25 -99,11 -216,-9 -216,-9 z"
   id="path410" />
    <path
   class="fil29"
   d="m 5378,9507 c 0,0 -30,-31 -80,-62 -48,-6 -92,-3 -123,1 -42,5 -83,-17 -101,-54 -9,1 -19,2 -28,4 0,0 38,35 65,120 0,0 127,-24 266,-8 z"
   id="path412" />
    <path
   class="fil29"
   d="m 6667,3528 c -10,109 -11,221 -1,333 19,-32 57,-83 132,-129 -4,-72 -5,-158 3,-245 0,0 0,-1 0,-3 12,-16 25,-32 37,-46 29,-34 56,-70 81,-108 44,-66 87,-112 87,-112 0,0 -267,104 -339,311 z"
   id="path414" />
    <path
   class="fil29"
   d="m 6853,4562 c 0,0 58,121 114,284 8,-20 26,-58 63,-104 -21,-78 -42,-165 -61,-261 -18,-92 -12,-187 19,-276 14,-38 31,-79 54,-121 -213,236 -190,478 -190,478 z"
   id="path416" />
    <path
   class="fil29"
   d="m 6707,4113 c 0,0 32,140 85,288 17,-75 56,-138 98,-187 -28,-81 -58,-185 -72,-280 0,0 0,-1 0,-2 39,-164 142,-269 142,-269 l -21,4 c 0,0 -209,100 -250,364 5,27 11,55 18,82 z"
   id="path418" />
    <path
   class="fil29"
   d="m 7504,4926 c -53,53 -195,198 -281,327 0,0 -50,-80 -113,-253 -23,-65 -29,-135 -13,-202 12,-50 34,-112 74,-181 0,0 -156,163 -161,368 30,110 43,223 37,337 -2,37 -5,76 -9,113 -4,-19 -7,-37 -11,-54 -23,-6 -86,-23 -174,-59 -53,-21 -104,-43 -221,-48 14,64 19,100 19,100 0,0 164,-45 352,185 42,51 101,87 166,95 83,10 178,-19 226,-189 30,-108 52,-230 244,-345 -49,-63 -93,-128 -133,-193 z"
   id="path420" />
    <path
   class="fil29"
   d="m 6645,3155 c 15,-51 31,-100 49,-149 -30,-198 79,-331 79,-331 0,0 -181,201 -127,480 z"
   id="path422" />
    <path
   class="fil29"
   d="m 6599,4079 c -5,-26 -10,-52 -15,-78 -35,-13 -96,-44 -145,-114 22,64 69,158 159,192 z"
   id="path424" />
    <path
   class="fil29"
   d="m 6956,5069 c -8,-32 -15,-55 -19,-71 -43,1 -137,-7 -230,-74 35,57 116,157 250,145 z"
   id="path426" />
    <path
   class="fil29"
   d="m 6779,4611 c -13,-29 -24,-51 -31,-67 -75,-18 -143,-57 -194,-116 -8,-9 -15,-18 -21,-26 36,72 110,181 246,209 z"
   id="path428" />
    <path
   class="fil29"
   d="m 6563,3622 c 3,-51 7,-101 14,-151 -22,-26 -61,-87 -71,-189 -9,84 -15,243 57,340 z"
   id="path430" />
    <path
   class="fil29"
   d="m 7367,1980 c -149,185 -373,500 -530,882 26,-16 67,-37 122,-51 v 0 c 27,-73 57,-144 92,-209 0,0 -13,67 -20,197 0,0 0,0 0,0 19,-2 38,-3 59,-3 0,0 -175,45 -304,201 -38,109 -70,223 -92,340 20,-21 65,-60 146,-88 15,-74 34,-159 59,-248 47,-45 101,-77 129,-92 -3,171 6,410 49,714 0,0 1,4 1,12 13,99 125,828 606,1388 44,-100 104,-267 114,-444 0,0 -1093,-825 -431,-2599 z"
   id="path432" />
    <path
   class="fil29"
   d="m 4893,4338 c -170,207 -228,395 -228,395 0,0 -55,264 120,448 22,-53 53,-139 76,-242 -20,-13 -53,-40 -88,-84 0,0 34,16 100,31 9,-46 16,-94 19,-144 -18,-17 -55,-52 -88,-90 0,0 22,12 56,24 4,-25 13,-89 21,-176 -2,-14 -5,-28 -8,-41 0,0 4,0 11,2 3,-38 6,-79 8,-122 z"
   id="path434" />
    <path
   class="fil29"
   d="m 6506,5497 c -21,-262 -125,-394 -125,-394 -50,4 -98,6 -145,6 105,135 111,277 96,373 -17,110 -90,207 -196,241 -1,0 -1,0 -2,0 -52,37 -126,52 -234,21 0,0 22,-5 56,-19 -27,-7 -49,-16 -66,-23 15,67 26,137 33,211 34,44 101,137 166,268 0,0 -56,-67 -160,-175 1,21 1,43 1,64 52,103 81,209 81,209 -29,-32 -63,-58 -86,-74 -7,97 -21,198 -45,303 l 89,125 c 167,-90 229,-240 253,-352 14,-68 12,-138 0,-206 -75,-424 282,-579 282,-579 z"
   id="path436" />
    <path
   class="fil29"
   d="m 5980,5387 c -16,54 -51,126 -124,177 5,17 10,35 15,52 108,-46 113,-172 109,-229 z"
   id="path438" />
    <path
   class="fil29"
   d="m 4709,5305 c -37,-38 -100,-124 -118,-277 -24,241 57,381 57,381 0,0 23,-49 61,-105 z"
   id="path440" />
    <path
   class="fil29"
   d="m 10791,5909 c 151,-129 251,-246 315,-341 83,-123 123,-270 117,-419 -1,-34 -4,-66 -7,-96 0,0 -5,234 -256,523 -93,107 -203,198 -323,274 -98,62 -261,179 -379,328 0,0 -4,-102 63,-216 42,-71 105,-128 178,-167 119,-65 415,-246 545,-453 -74,78 -164,141 -258,196 -168,100 -475,233 -601,560 36,-324 361,-516 530,-616 120,-72 234,-153 317,-266 59,-80 93,-155 112,-219 32,-105 21,-218 -25,-318 -72,-152 -150,-274 -227,-370 38,94 82,229 95,377 22,-11 35,-21 35,-21 -4,11 -8,20 -13,29 -34,64 -113,89 -179,60 -57,-25 -90,-60 -90,-60 0,0 104,169 249,118 -1,27 -4,54 -9,81 53,-16 85,-36 85,-36 -14,28 -30,50 -47,66 -50,50 -126,64 -193,41 -98,-33 -161,-108 -161,-108 0,0 60,224 278,182 -14,35 -30,68 -51,101 79,-15 130,-46 130,-46 -26,34 -53,59 -79,78 -77,58 -183,60 -263,5 -20,-14 -38,-29 -53,-43 34,45 95,114 160,133 -15,14 -31,27 -47,40 23,-2 47,-6 72,-13 0,0 -19,24 -58,48 -68,41 -153,42 -219,-1 -40,-26 -84,-71 -122,-147 4,46 29,216 186,226 -41,25 -88,56 -136,88 10,3 21,5 32,7 0,0 -77,23 -158,8 -52,-10 -96,-45 -117,-93 -9,-21 -18,-47 -26,-80 3,56 23,210 149,242 -34,26 -67,52 -95,77 18,9 37,18 57,25 0,0 -104,30 -203,-31 0,0 58,186 49,405 -3,84 34,166 103,215 34,24 79,46 138,61 120,-195 285,-341 398,-437 z"
   id="path442" />
    <path
   class="fil29"
   d="m 9931,5428 c -12,-70 -17,-196 45,-338 -39,0 -63,-3 -63,-3 -54,171 -60,295 -60,295 31,14 57,31 78,46 z"
   id="path444" />
    <path
   class="fil29"
   d="m 9480,3170 c -2,-66 -15,-204 -88,-335 31,79 33,151 31,186 20,49 39,99 57,149 z"
   id="path446" />
    <path
   class="fil29"
   d="m 9394,4810 c 15,-93 34,-176 50,-234 2,-6 3,-13 5,-19 -16,-274 -186,-445 -186,-445 0,0 57,86 105,277 -12,84 -26,206 -30,342 25,30 43,58 55,79 z"
   id="path448" />
    <path
   class="fil29"
   d="m 9657,5334 c 12,1 23,2 34,3 1,-35 1,-66 3,-96 -37,5 -83,15 -127,35 -41,19 -88,48 -160,70 0,21 0,41 1,61 -45,-134 -47,-300 -32,-453 -35,-195 -155,-334 -155,-334 0,0 65,106 111,271 -9,86 -31,207 -80,325 0,0 -113,-170 -250,-295 -23,59 -49,116 -77,171 167,131 184,253 218,350 19,54 39,81 61,106 70,79 196,60 244,-33 37,-71 78,-118 110,-146 28,-25 64,-37 101,-35 z"
   id="path450" />
    <path
   class="fil29"
   d="m 9419,3769 c 56,41 90,80 109,105 -3,-114 -14,-219 -32,-317 -115,-224 -302,-299 -302,-299 0,0 101,97 195,269 14,78 24,159 29,242 z"
   id="path452" />
    <path
   class="fil29"
   d="m 9596,4920 c -37,31 -87,54 -155,61 -4,23 -7,47 -11,71 44,-3 139,-23 166,-133 z"
   id="path454" />
    <path
   class="fil29"
   d="m 9569,3501 c 8,44 15,91 21,141 16,-54 33,-159 7,-312 0,53 -6,114 -28,171 z"
   id="path456" />
    <path
   class="fil29"
   d="m 9603,4111 c 33,-24 85,-79 101,-185 -21,36 -51,70 -96,97 -1,29 -3,58 -5,88 z"
   id="path458" />
    <path
   class="fil29"
   d="m 9487,4382 c 21,-118 34,-229 39,-334 -55,-224 -226,-351 -226,-351 0,0 55,79 124,254 -2,95 -11,191 -29,286 50,59 78,111 92,146 z"
   id="path460" />
    <path
   class="fil29"
   d="m 9535,4550 c -3,13 -7,26 -10,39 -2,6 -3,13 -5,20 35,-10 117,-47 164,-188 -31,54 -78,103 -148,129 z"
   id="path462" />
    <path
   class="fil29"
   d="m 9188,2845 c -21,-8 -41,-15 -54,-19 -10,-61 -22,-120 -35,-174 0,0 38,72 89,193 z m 152,181 c -104,-121 -241,-180 -241,-180 94,10 153,33 188,53 -161,-365 -367,-685 -506,-882 715,1682 -43,2561 -43,2561 40,201 95,339 134,421 333,-594 323,-1392 323,-1392 0,0 -3,-337 -43,-660 53,39 87,66 108,84 28,81 56,171 81,268 48,19 84,38 111,56 -31,-112 -69,-222 -111,-330 z"
   id="path464" />
    <path
   class="fil30"
   d="m 9263,7187 c 0,0 91,71 141,-8 12,-19 8,-45 -12,-55 -2,-1 -4,-2 -6,-2 -18,-6 -36,5 -49,19 -15,16 -38,39 -75,46 z"
   id="path466" />
    <path
   class="fil30"
   d="m 7498,7207 c 0,0 -43,31 -102,42 -29,5 -59,-1 -82,-20 -13,-11 -23,-26 -20,-46 3,-20 23,-33 43,-31 21,3 51,9 84,24 24,11 49,21 74,29 l 2,1 z"
   id="path468" />
    <path
   class="fil30"
   d="m 6933,5243 c 0,0 -103,-5 -184,-25 0,0 -17,-52 -20,-125 0,0 76,38 150,44 z"
   id="path470" />
    <path
   class="fil30"
   d="m 6689,4624 c -115,-29 -200,-108 -200,-108 91,245 279,317 279,317 0,0 -47,-104 -79,-209 z"
   id="path472" />
    <path
   class="fil30"
   d="m 6587,4304 c 0,0 -162,-131 -213,-365 0,0 49,85 174,193 0,0 20,105 39,173 z"
   id="path474" />
    <path
   class="fil30"
   d="m 6506,3794 c 0,0 0,-88 0,-145 0,0 -75,-143 -84,-279 0,0 -25,101 -30,212 -1,14 1,28 5,41 11,37 40,113 110,171 z"
   id="path476" />
    <path
   class="fil30"
   d="m 6553,3108 c 0,0 37,-168 119,-350 l -102,135 -23,35 c 0,0 -2,53 6,180 z"
   id="path478" />
    <path
   class="fil30"
   d="m 6019,5405 c 0,0 0,95 -38,175 l 94,19 c 0,0 64,-37 92,-152 -55,-13 -104,-27 -148,-42 z"
   id="path480" />
    <path
   class="fil30"
   d="m 5733,5268 c 27,51 52,105 76,164 48,-47 62,-85 62,-85 -67,-32 -113,-61 -138,-78 z"
   id="path482" />
    <path
   class="fil30"
   d="m 5219,4595 c 0,0 -74,-102 -50,-305 0,0 -90,105 -77,284 18,15 38,32 58,51 16,-5 43,-14 70,-30 z"
   id="path484" />
    <path
   class="fil30"
   d="m 5294,4790 19,-8 c -15,-34 -33,-80 -33,-80 l -34,26 c 16,19 32,39 48,61 z"
   id="path486" />
    <path
   class="fil30"
   d="m 10629,5236 c 5,-7 10,-13 14,-19 -24,-18 -76,-62 -120,-142 -18,26 -38,52 -61,78 22,20 89,73 166,84 z"
   id="path488" />
    <path
   class="fil30"
   d="m 10359,5251 c -28,22 -59,43 -92,63 16,31 57,94 130,129 18,-11 35,-22 51,-33 -23,-19 -71,-69 -89,-158 z"
   id="path490" />
    <path
   class="fil30"
   d="m 10663,4716 c 0,0 -2,27 -12,69 23,16 69,44 145,66 3,-13 5,-25 7,-37 -27,-18 -81,-55 -136,-109 l -4,10 z"
   id="path492" />
    <path
   class="fil30"
   d="m 10168,5365 c -35,15 -72,29 -111,42 30,86 85,146 85,146 24,-7 47,-14 69,-21 -14,-28 -36,-83 -42,-166 z"
   id="path494" />
    <path
   class="fil30"
   d="m 10708,5108 c 1,-2 1,-3 1,-3 14,-28 26,-56 37,-82 -24,-15 -78,-55 -126,-132 -13,34 -29,72 -50,110 19,24 65,74 138,108 z"
   id="path496" />
    <path
   class="fil30"
   d="m 10707,4612 c 17,9 55,27 106,42 0,-2 0,-4 0,-4 -19,-245 -91,-341 -91,-341 0,0 35,139 -11,294 z"
   id="path498" />
    <path
   class="fil30"
   d="m 9436,2834 c 0,0 54,123 103,315 0,0 4,-90 -11,-171 -15,-81 -92,-144 -92,-144 z"
   id="path500" />
    <path
   class="fil30"
   d="m 9674,3425 c 0,0 -5,166 -42,261 0,0 8,73 10,137 0,0 66,-62 81,-181 0,0 -17,-118 -49,-216 z"
   id="path502" />
    <path
   class="fil30"
   d="m 9761,3962 c 0,0 -41,115 -115,189 0,0 -2,73 -14,159 0,0 124,-125 129,-348 z"
   id="path504" />
    <path
   class="fil30"
   d="m 9586,4631 c 0,0 71,-22 139,-107 0,0 -17,202 -176,301 0,0 27,-102 37,-195 z"
   id="path506" />
    <path
   class="fil30"
   d="m 9493,5109 c 0,0 66,-11 113,-40 0,0 -1,73 -11,127 0,0 -57,9 -132,11 0,0 15,-57 29,-99 z"
   id="path508" />
    <path
   class="fil21"
   d="m 9089,7460 c -114,-107 -171,-261 -164,-417 7,-156 56,-272 56,-272 -11,5 -23,14 -34,24 -35,32 -59,75 -72,121 -27,98 -32,183 -28,249 6,110 53,214 131,291 159,155 361,147 361,147 -108,-31 -190,-86 -251,-143 z"
   id="path510" />
    <path
   class="fil21"
   d="m 9578,6574 c 0,0 148,9 254,109 19,18 52,3 49,-23 -1,-9 -4,-20 -9,-32 -22,-50 -70,-86 -124,-93 -42,-6 -100,0 -170,39 z"
   id="path512" />
    <path
   class="fil21"
   d="m 10081,7190 c 20,-130 -2,-263 -61,-380 -31,-61 -61,-91 -82,-106 -7,-5 -16,2 -13,10 36,88 144,415 -23,828 116,-113 162,-244 179,-351 z"
   id="path514" />
    <path
   class="fil31"
   d="m 6241,10212 c 0,0 -48,93 -62,238 38,-163 142,-255 142,-255 l 1,1 c 12,32 48,47 80,37 40,-13 65,-31 82,-47 21,-20 33,-50 29,-79 -4,-40 -34,-47 -34,-47 87,-88 158,-119 158,-119 0,0 -278,49 -395,270 z"
   id="path516" />
    <path
   class="fil31"
   d="m 6523,12330 c 70,-314 197,-691 272,-900 47,-131 62,-271 43,-409 -70,289 -156,539 -156,539 -97,311 -140,590 -159,770 z"
   id="path518" />
    <path
   class="fil31"
   d="m 9006,10722 c 0,0 4,184 -24,395 -6,47 -12,95 -15,143 -4,65 -12,162 -23,236 0,0 189,-309 62,-773 z"
   id="path520" />
    <path
   class="fil31"
   d="m 9441,12296 c -7,-41 -12,-82 -17,-124 -9,-82 -40,-312 -129,-545 13,77 28,180 39,301 10,108 25,216 47,323 7,34 14,66 21,91 0,0 -71,-70 -136,-177 0,0 15,74 40,156 44,77 125,199 263,335 0,0 -80,-83 -127,-361 z"
   id="path522" />
    <path
   class="fil31"
   d="m 9783,13080 c -85,-61 -184,-152 -276,-281 -98,-90 -243,-277 -373,-663 0,0 39,824 650,944 z"
   id="path524" />
    <path
   class="fil31"
   d="m 10174,10288 c -33,-292 -112,-510 -112,-510 -15,10 -30,18 -45,27 17,45 50,147 79,290 -41,19 -70,66 -70,121 0,70 47,126 106,130 11,124 15,265 3,418 45,-153 56,-315 38,-475 z"
   id="path526" />
    <path
   class="fil30"
   d="m 6619,14231 c 16,-75 78,-314 246,-414 -48,4 -92,26 -124,62 -127,144 -147,340 -147,340 8,5 16,9 26,12 z"
   id="path528" />
    <path
   class="fil30"
   d="m 7209,13881 c -12,-10 -26,-19 -42,-27 -14,-7 -30,-5 -41,5 -45,38 -163,154 -233,374 0,0 1,2 4,5 10,11 21,19 33,26 101,-302 225,-369 279,-384 z"
   id="path530" />
    <path
   class="fil30"
   d="m 9218,14265 c 5,-7 9,-15 9,-24 1,-21 1,-49 1,-80 0,-87 -31,-173 -91,-236 -3,-3 -5,-5 -8,-8 -8,-8 -19,-11 -30,-11 32,47 102,168 118,359 z"
   id="path532" />
    <path
   class="fil30"
   d="m 9446,13946 c -20,-22 -48,-36 -77,-38 48,28 124,108 160,333 28,-10 43,-19 43,-19 -36,-157 -89,-238 -125,-276 z"
   id="path534" />
    <path
   class="fil21"
   d="m 9195,3607 c 0,0 29,606 -140,1157 232,-432 140,-1157 140,-1157 z"
   id="path536" />
    <path
   class="fil21"
   d="m 6815,2501 c -4,31 -11,81 -15,120 127,-179 282,-369 471,-566 69,-79 114,-122 114,-122 -231,195 -419,387 -570,569 z"
   id="path538" />
    <path
   class="fil21"
   d="m 6352,3258 c -85,226 -119,466 -103,705 14,-209 54,-396 105,-556 -2,-61 -2,-117 -2,-150 z"
   id="path540" />
    <path
   class="fil21"
   d="m 6438,3187 c 119,-272 250,-424 250,-424 0,0 8,-59 17,-121 -114,153 -203,297 -269,427 0,31 0,73 2,118 z"
   id="path542" />
    <path
   class="fil21"
   d="m 7078,3639 c -8,-61 -13,-100 -13,-100 0,0 -20,757 343,1218 -265,-512 -322,-1026 -331,-1119 z"
   id="path544" />
    <path
   class="fil21"
   d="m 5140,4102 c -107,80 -192,167 -259,251 -4,54 -7,105 -7,105 0,0 23,2 62,18 6,-48 39,-202 204,-374 z"
   id="path546" />
    <path
   class="fil21"
   d="m 10759,4164 c 72,102 161,270 183,501 0,0 30,-131 -6,-298 -60,-83 -120,-150 -176,-203 z"
   id="path548" />
    <path
   class="fil21"
   d="m 9722,3424 c 41,116 105,334 141,620 0,-260 -51,-518 -148,-759 2,42 6,97 8,139 z"
   id="path550" />
    <path
   class="fil21"
   d="m 9395,2798 c 87,136 171,283 246,436 l -8,-125 c -3,-7 -7,-13 -10,-20 -78,-145 -161,-279 -245,-400 l 17,110 z"
   id="path552" />
    <path
   class="fil21"
   d="m 9285,2559 c -278,-375 -528,-595 -528,-595 0,0 262,279 536,680 z"
   id="path554" />
    <path
   class="fil21"
   d="m 9537,8271 c 0,-2 0,-4 0,-6 -65,2 -164,24 -258,122 0,0 93,-69 240,-94 11,-2 18,-11 18,-22 z"
   id="path556" />
    <path
   class="fil21"
   d="m 9462,8730 c -1,-4 -1,-8 -2,-12 -134,27 -240,121 -240,121 5,3 11,5 16,8 34,-23 116,-75 214,-99 8,-2 13,-9 12,-17 z"
   id="path558" />
    <path
   class="fil21"
   d="m 9470,9253 c -68,-3 -126,-33 -154,-50 -4,0 -9,-1 -13,-1 0,0 58,62 164,81 11,-12 11,-30 3,-30 z"
   id="path560" />
    <path
   class="fil21"
   d="m 5367,9908 c -38,-24 -80,-41 -124,-51 -20,-5 -43,-9 -69,-11 0,0 -2,2 -4,5 39,10 131,41 250,118 4,-3 8,-5 12,-8 l 1,-1 c 0,0 -24,-25 -67,-52 z"
   id="path562" />
    <path
   class="fil21"
   d="m 5355,10322 c -8,1 -16,2 -24,2 -58,40 -114,50 -137,50 -19,0 -7,18 3,30 110,-25 158,-82 158,-82 z"
   id="path564" />
    <path
   class="fil21"
   d="m 5112,9389 c 11,16 29,27 49,30 35,5 121,24 218,88 0,0 -111,-117 -267,-118 z"
   id="path566" />
    <path
   class="fil21"
   d="m 6611,14228 c 13,5 28,8 44,10 5,-64 28,-202 121,-320 0,0 -131,50 -165,310 z"
   id="path568" />
    <path
   class="fil21"
   d="m 6955,14276 c 5,-40 23,-140 95,-263 0,0 -99,80 -130,246 11,8 23,13 36,18 z"
   id="path570" />
    <path
   class="fil21"
   d="m 9190,14280 c 20,-2 36,-19 36,-39 0,-9 1,-20 1,-32 -17,-50 -45,-118 -79,-167 0,0 37,117 31,240 4,0 7,-1 11,-1 z"
   id="path572" />
    <path
   class="fil21"
   d="m 9532,14240 c -4,-94 -45,-135 -45,-135 0,0 14,73 3,146 16,-4 30,-8 41,-12 z"
   id="path574" />
    <path
   class="fil21"
   d="m 7602,8090 c -3,27 -3,56 -1,77 1,17 15,31 33,31 30,1 57,-2 57,-2 0,0 -56,-42 -89,-106 z"
   id="path576" />
   </g>
   <path
   class="fil32"
   d="m 4855,16578 c 33,66 37,144 7,217 -134,318 -437,609 -800,609 -143,0 -272,-38 -395,-111 -217,-130 -316,-314 -594,-314 -86,0 -160,-38 -210,-108 -14,-19 -24,-39 -33,-59 -385,0 -770,0 -1155,0 -86,0 -159,-38 -209,-107 -50,-69 -63,-151 -36,-232 15,-46 30,-92 46,-137 37,-105 132,-171 243,-171 389,0 778,0 1167,0 54,0 104,15 146,44 0,-2 1,-4 1,-5 38,-153 76,-306 115,-459 7,-29 21,-87 24,-128 -19,-38 -29,-80 -28,-126 2,-81 39,-152 100,-198 25,-41 50,-130 60,-168 52,-208 104,-416 157,-623 13,-50 42,-177 41,-244 -44,-79 -45,-179 5,-261 9,-15 19,-30 29,-44 50,-68 123,-105 208,-105 182,0 363,0 545,0 129,0 237,93 255,220 12,48 11,96 -3,141 136,0 272,0 407,0 82,0 156,38 203,98 130,-89 285,-142 446,-142 58,0 116,0 175,0 156,0 298,51 410,136 49,-60 119,-92 198,-92 333,0 667,0 1000,0 28,0 54,4 79,12 24,-8 51,-12 78,-12 179,0 357,0 536,0 50,0 96,13 136,38 39,-24 86,-38 135,-38 179,0 357,0 536,0 79,0 149,34 197,90 115,-84 258,-134 413,-134 49,0 98,0 147,0 159,0 312,53 438,142 48,-61 121,-98 203,-98 114,0 228,0 341,0 0,0 0,-1 0,-1 0,-1 -1,-2 -1,-3 -34,-81 -26,-166 22,-240 49,-75 127,-117 217,-117 199,0 398,0 597,0 72,0 135,26 183,76 47,-49 112,-76 184,-76 199,0 398,0 597,0 104,0 194,58 236,154 9,19 14,38 20,58 30,104 -8,213 -89,276 -28,58 -42,196 -46,248 -12,174 -28,348 -43,522 -13,146 -27,292 -42,437 56,47 88,116 89,193 0,47 -11,91 -32,130 2,39 14,94 20,121 17,74 35,149 52,223 14,61 57,222 103,278 95,65 137,186 98,298 -28,115 -130,196 -251,196 -212,0 -424,0 -636,0 -76,0 -142,-29 -193,-86 -28,-31 -50,-68 -64,-107 -12,-34 -17,-68 -15,-101 -361,0 -722,0 -1083,0 -88,0 -164,-40 -213,-112 -126,96 -290,152 -464,152 -65,0 -130,0 -196,0 -172,0 -341,-53 -479,-147 -47,65 -124,107 -210,107 -199,0 -399,0 -598,0 -56,0 -109,-17 -151,-48 -43,31 -95,48 -151,48 -199,0 -398,0 -597,0 -31,0 -60,-5 -87,-15 -27,10 -57,15 -88,15 -372,0 -745,0 -1117,0 -86,0 -161,-39 -209,-106 -140,93 -309,146 -481,146 -65,0 -130,0 -196,0 -171,0 -330,-53 -453,-146 z m 8001,-83 c -24,-81 -10,-161 41,-228 50,-68 123,-104 207,-104 391,0 781,0 1172,0 111,0 206,67 243,171 16,45 31,91 46,137 27,81 14,163 -36,232 -50,69 -124,107 -209,107 -393,0 -787,0 -1180,0 -209,0 -238,-162 -284,-316 z"
   id="path580" />
   <path
   class="fil33"
   d="m 1676,16552 c 390,0 782,0 1175,0 12,-44 23,-87 37,-131 -390,0 -780,0 -1167,0 -16,44 -30,88 -44,131 z m 11464,0 c 391,0 785,0 1180,0 -14,-44 -29,-87 -44,-131 -392,0 -782,0 -1172,0 13,44 25,88 37,131 z m -1328,-2424 c 0,0 100,117 83,412 -10,171 -27,340 -43,510 -94,-170 -188,-338 -274,-510 -146,-294 -98,-412 -98,-412 -8,-9 -17,-17 -25,-26 -199,0 -399,0 -597,0 4,9 7,17 9,26 0,0 136,44 334,434 88,173 178,346 269,518 91,172 185,345 280,517 3,117 -35,138 -35,138 0,0 82,33 140,306 16,74 30,149 46,223 79,379 -14,434 -14,434 3,7 7,15 13,22 211,0 424,0 636,0 1,-7 4,-15 7,-22 0,0 -121,-55 -209,-434 -17,-74 -35,-148 -52,-223 -64,-273 5,-306 5,-306 0,0 -47,-22 -96,-138 18,-172 36,-345 51,-517 15,-172 31,-345 43,-518 27,-390 145,-434 145,-434 -3,-9 -4,-17 -8,-26 -199,0 -399,0 -597,0 -4,9 -8,17 -12,26 z m -6858,357 c -1,-7 -3,-14 -4,-22 -179,0 -359,0 -536,0 -3,7 -7,15 -10,22 0,0 78,51 3,411 -17,84 -34,168 -51,251 -54,262 -133,295 -133,295 0,0 65,33 10,295 -17,84 -34,168 -51,251 -75,364 -185,411 -185,411 0,9 1,17 3,26 198,0 398,0 597,0 4,-9 8,-17 14,-26 0,0 -93,-47 -25,-411 16,-84 30,-167 46,-251 48,-262 126,-295 126,-295 0,0 -65,-33 -17,-295 15,-84 31,-167 47,-251 67,-360 166,-411 166,-411 z m 1194,677 c 10,-99 21,-199 31,-298 26,-244 -154,-444 -405,-444 -59,0 -117,0 -175,0 -253,0 -489,200 -531,444 -20,114 -37,228 -59,342 -40,207 -111,236 -111,236 0,0 62,29 31,237 -17,114 -39,228 -59,342 -42,248 154,444 437,444 65,0 130,0 196,0 283,0 529,-196 554,-444 9,-85 18,-170 27,-255 -128,-42 -256,-85 -382,-127 -17,143 -36,287 -53,430 -10,76 -91,142 -177,142 -21,0 -42,0 -61,0 -90,0 -151,-65 -139,-142 17,-110 32,-221 48,-331 39,-262 113,-295 113,-295 0,0 -65,-32 -26,-295 16,-109 32,-218 48,-328 12,-80 85,-146 168,-146 18,0 37,0 56,0 80,0 137,66 128,146 -9,72 -18,143 -27,215 121,43 245,85 368,127 z m 734,-444 c 377,0 412,91 412,91 8,-4 17,-7 26,-11 21,-111 40,-223 61,-335 -334,0 -668,0 -1000,0 -5,7 -9,15 -13,22 0,0 85,51 52,411 -8,84 -15,168 -22,251 -24,262 -99,295 -99,295 0,0 68,33 44,295 -8,84 -15,168 -22,251 -33,364 -137,411 -137,411 3,9 5,17 9,26 372,0 744,0 1117,0 -16,-113 -29,-225 -42,-338 -9,-2 -20,-5 -27,-7 0,0 -46,87 -454,87 -25,0 -50,0 -74,0 17,-235 33,-471 50,-706 355,4 390,87 390,87 8,-2 16,-5 25,-7 21,-113 43,-225 65,-338 -155,0 -309,0 -463,0 12,-161 22,-323 34,-484 22,0 46,0 68,0 z m 2008,-233 c -4,-7 -7,-14 -9,-22 -179,0 -357,0 -536,0 -1,7 -4,15 -7,22 0,0 90,51 99,411 4,154 9,308 12,462 -74,-142 -149,-284 -220,-426 0,0 0,0 0,0 -196,-389 -136,-448 -136,-448 -7,-7 -13,-14 -20,-22 -179,0 -357,0 -536,0 -1,7 -4,15 -7,22 0,0 87,51 78,411 -2,84 -2,168 -4,251 -6,262 -78,295 -78,295 0,0 70,33 64,295 -2,84 -3,168 -5,251 -8,364 -108,411 -108,411 3,9 5,17 8,26 198,0 398,0 597,0 3,-9 5,-17 9,-26 0,0 -99,-47 -100,-411 0,-136 0,-273 0,-409 0,-136 0,-273 0,-410 76,151 153,302 232,452 79,151 162,301 245,451 -9,288 -91,327 -91,327 3,9 5,17 8,26 198,0 398,0 598,0 1,-9 4,-17 7,-26 0,0 -101,-47 -119,-411 -4,-84 -8,-167 -12,-251 -12,-262 56,-295 56,-295 0,0 -72,-33 -83,-295 -4,-84 -9,-167 -13,-251 -17,-360 70,-411 70,-411 z m 1201,1045 c 1,0 1,0 4,0 -4,-3 -4,-3 -8,-7 -32,-36 -75,-67 -106,-98 -101,-103 -87,-149 -87,-149 0,0 -75,25 -283,-156 -96,-84 -161,-175 -169,-273 -1,-8 -1,-17 -1,-26 -7,-80 51,-146 133,-146 9,0 18,0 27,0 82,0 158,66 166,146 5,57 12,114 18,171 130,44 262,88 395,131 -10,-86 -22,-172 -33,-258 -31,-244 -259,-444 -508,-444 -48,0 -98,0 -147,0 -253,0 -445,200 -429,444 1,15 2,29 3,44 9,146 106,269 227,382 0,0 0,0 0,0 0,0 0,0 0,0 12,11 27,24 42,37 171,154 154,215 154,215 0,0 74,-25 282,164 89,81 133,178 145,288 3,26 7,51 9,76 8,76 -60,142 -146,142 -21,0 -42,0 -63,0 -89,0 -165,-65 -171,-142 -11,-130 -21,-260 -31,-389 -132,44 -262,88 -392,131 5,70 9,141 13,211 15,248 257,444 540,444 65,0 130,0 196,0 283,0 482,-197 451,-444 -4,-30 -8,-61 -12,-91 -20,-156 -103,-288 -216,-400 z m 1400,550 c 0,0 -29,87 -433,87 -18,0 -34,0 -50,0 -23,-143 -47,-286 -70,-430 -42,-262 25,-295 25,-295 0,0 -76,-33 -119,-295 -14,-84 -28,-167 -42,-251 -58,-360 23,-411 23,-411 -4,-7 -8,-14 -10,-22 -179,0 -359,0 -536,0 -3,7 -4,15 -5,22 0,0 97,51 147,411 12,84 24,168 35,251 37,262 -30,295 -30,295 0,0 76,33 112,295 12,84 24,168 35,251 51,364 -43,411 -43,411 4,9 8,17 13,26 362,0 727,0 1091,0 -40,-113 -80,-225 -119,-338 -9,-2 -17,-5 -26,-7 z m -7834,425 c 53,-233 107,-466 160,-699 64,-277 150,-310 150,-310 0,0 -70,-36 -8,-310 47,-207 94,-415 142,-623 88,-383 194,-434 194,-434 -3,-9 -4,-17 -5,-26 -183,0 -364,0 -545,0 -7,9 -12,17 -17,26 0,0 82,51 -16,434 -53,208 -104,415 -156,623 -69,274 -153,310 -153,310 0,0 66,33 -4,310 -38,153 -77,307 -115,459 -95,379 -219,434 -219,434 3,7 3,15 8,22 521,0 592,425 988,425 372,0 562,-451 562,-451 -12,-7 -22,-15 -34,-22 -256,218 -641,-48 -933,-168 z"
   id="path582" />
   <path
   class="fil34"
   d="m 12197,15748 c -32,-39 -57,-88 -72,-124 l -7,-17 2,-18 c 4,-34 7,-68 11,-102 h -361 c 14,25 28,50 42,76 l 8,15 v 17 c 1,36 -2,84 -16,126 65,83 104,233 119,306 16,74 30,149 46,223 24,115 48,271 23,388 -1,4 -2,8 -3,12 138,0 277,0 415,0 -68,-107 -111,-249 -139,-370 -17,-74 -35,-148 -52,-223 -20,-84 -40,-200 -22,-286 2,-8 4,-15 6,-23 z m -7878,-261 c 16,90 -6,207 -18,264 -17,84 -34,168 -51,251 -24,114 -60,250 -122,352 126,0 252,0 378,0 -1,-3 -1,-5 -2,-8 -28,-111 -8,-261 13,-372 16,-84 30,-168 46,-251 10,-56 33,-157 72,-237 h -316 z m 681,0 c 14,64 8,140 -1,201 -17,115 -39,229 -59,344 -11,66 -2,133 30,192 67,120 206,171 337,171 65,0 130,0 196,0 191,0 394,-108 464,-294 11,-28 18,-58 21,-88 7,-66 14,-133 21,-199 -82,-27 -165,-55 -247,-82 -14,115 -29,230 -43,345 -15,118 -132,203 -247,203 -20,0 -41,0 -61,0 -123,0 -228,-95 -209,-222 17,-110 32,-221 48,-331 8,-56 27,-158 64,-239 h -314 z m 1402,0 c 23,87 16,199 11,256 -8,84 -15,168 -22,251 -10,114 -32,256 -84,360 308,0 616,0 924,0 -7,-57 -14,-115 -21,-172 -129,51 -343,54 -422,54 -25,0 -50,0 -74,0 h -75 l 5,-75 c 16,-225 31,-449 47,-674 z m 2119,0 3,165 -86,-165 h -205 c 17,34 35,67 53,101 79,151 162,301 244,450 l 9,17 -1,19 c -3,88 -13,196 -47,281 127,0 253,0 380,0 -49,-106 -64,-249 -70,-363 -4,-84 -8,-168 -12,-252 -3,-57 -4,-167 21,-253 z m -886,0 c 27,85 28,194 26,251 -2,84 -3,168 -5,251 -3,114 -14,259 -61,365 127,0 254,0 381,0 -45,-107 -54,-252 -54,-366 0,-136 0,-273 0,-409 v -92 z m 1944,0 c 92,38 191,123 237,165 98,89 153,201 167,332 3,26 7,51 9,77 3,31 -1,62 -13,91 -34,81 -117,128 -202,128 -21,0 -42,0 -63,0 -117,0 -231,-86 -241,-206 -8,-100 -16,-200 -24,-301 -85,29 -171,57 -256,86 3,52 6,105 9,157 2,36 10,71 23,104 70,176 264,275 447,275 65,0 130,0 196,0 136,0 278,-54 347,-178 32,-58 43,-122 35,-188 -4,-30 -8,-61 -12,-91 -18,-142 -96,-260 -196,-360 l -66,-66 c -10,-8 -20,-17 -29,-26 h -367 z m 1896,691 c -123,57 -341,58 -417,58 -17,0 -33,0 -50,0 h -59 l -10,-59 c -24,-143 -47,-287 -70,-430 -9,-57 -24,-172 -6,-261 h -317 c 36,81 54,184 62,240 12,84 23,168 35,251 16,112 28,261 -4,371 0,2 -1,3 -2,5 299,0 599,0 898,0 -21,-59 -41,-117 -62,-176 z m -7966,-691 c -6,8 -11,16 -17,23 27,98 -8,249 -24,312 -38,153 -76,306 -115,459 -31,124 -78,270 -152,377 122,17 232,60 342,133 54,36 105,78 155,119 44,36 89,72 138,101 72,43 142,65 226,65 151,0 273,-88 366,-199 17,-20 34,-42 50,-66 -4,1 -8,2 -13,3 -273,67 -590,-143 -836,-244 l -55,-23 13,-58 c 53,-233 107,-466 160,-699 21,-93 54,-203 109,-283 4,-6 9,-13 14,-19 h -363 z"
   id="path584"
   style="fill:url(#id1)" />
  </g></g>
</svg>
