<?xml version="1.0" encoding="UTF-8" standalone="no"?>
<!-- Creator: CorelDRAW 2017 -->

<svg
   xml:space="preserve"
   width="140.79341mm"
   height="44.759998mm"
   version="1.1"
   style="clip-rule:evenodd;fill-rule:evenodd;image-rendering:optimizeQuality;shape-rendering:geometricPrecision;text-rendering:geometricPrecision"
   viewBox="0 0 14079.341 4475.9998"
   id="svg1154"
   sodipodi:docname="Licensly.svg"
   inkscape:version="1.1.1 (3bf5ae0d25, 2021-09-20)"
   xmlns:inkscape="http://www.inkscape.org/namespaces/inkscape"
   xmlns:sodipodi="http://sodipodi.sourceforge.net/DTD/sodipodi-0.dtd"
   xmlns:xlink="http://www.w3.org/1999/xlink"
   xmlns="http://www.w3.org/2000/svg"
   xmlns:svg="http://www.w3.org/2000/svg"><sodipodi:namedview
   id="namedview1156"
   pagecolor="#ffffff"
   bordercolor="#666666"
   borderopacity="1.0"
   inkscape:pageshadow="2"
   inkscape:pageopacity="0.0"
   inkscape:pagecheckerboard="0"
   inkscape:document-units="mm"
   showgrid="false"
   inkscape:zoom="0.85926587"
   inkscape:cx="-33.74974"
   inkscape:cy="-225.19223"
   inkscape:window-width="2560"
   inkscape:window-height="1391"
   inkscape:window-x="0"
   inkscape:window-y="25"
   inkscape:window-maximized="1"
   inkscape:current-layer="layer2"
   units="px"
   fit-margin-left="2"
   fit-margin-right="2"
   fit-margin-bottom="2"
   fit-margin-top="2"
   lock-margins="true" />
 <defs
   id="defs17">
  <style
   type="text/css"
   id="style2">
   <![CDATA[
    .str0 {stroke:#332C2B;stroke-width:20}
    .fil32 {fill:black}
    .fil0 {fill:black}
    .fil3 {fill:black;fill-rule:nonzero}
    .fil29 {fill:#2B2B2B;fill-rule:nonzero}
    .fil25 {fill:#35160F;fill-rule:nonzero}
    .fil27 {fill:#401308;fill-rule:nonzero}
    .fil5 {fill:#4F1801;fill-rule:nonzero}
    .fil4 {fill:#5D5C60;fill-rule:nonzero}
    .fil22 {fill:#633518;fill-rule:nonzero}
    .fil15 {fill:#683529;fill-rule:nonzero}
    .fil6 {fill:#782E0F;fill-rule:nonzero}
    .fil14 {fill:#7D2915;fill-rule:nonzero}
    .fil8 {fill:#871D15;fill-rule:nonzero}
    .fil17 {fill:#878787;fill-rule:nonzero}
    .fil30 {fill:#96959A;fill-rule:nonzero}
    .fil11 {fill:#96959B;fill-rule:nonzero}
    .fil12 {fill:#9F6941;fill-rule:nonzero}
    .fil24 {fill:#A1868D;fill-rule:nonzero}
    .fil26 {fill:#A9513D;fill-rule:nonzero}
    .fil28 {fill:#AB6243;fill-rule:nonzero}
    .fil16 {fill:#B05A36;fill-rule:nonzero}
    .fil19 {fill:#B59586;fill-rule:nonzero}
    .fil23 {fill:#C9B29A;fill-rule:nonzero}
    .fil10 {fill:#D6D6D6;fill-rule:nonzero}
    .fil31 {fill:#DB9273;fill-rule:nonzero}
    .fil7 {fill:#E74226;fill-rule:nonzero}
    .fil13 {fill:#EBDEDC;fill-rule:nonzero}
    .fil9 {fill:#EDE5D2;fill-rule:nonzero}
    .fil18 {fill:#FF8E6E;fill-rule:nonzero}
    .fil20 {fill:#FF8F6E;fill-rule:nonzero}
    .fil21 {fill:white;fill-rule:nonzero}
    .fil33 {fill:white;fill-rule:nonzero}
    .fil36 {fill:url(#id0)}
    .fil34 {fill:url(#id1)}
    .fil2 {fill:url(#id2)}
    .fil35 {fill:url(#id3)}
    .fil1 {fill:url(#id4)}
   ]]>
  </style>
  <linearGradient
   id="id0"
   gradientUnits="userSpaceOnUse"
   x1="22171"
   y1="17898"
   x2="22171"
   y2="18572">
   <stop
   offset="0"
   style="stop-opacity:1; stop-color:#5D5C60"
   id="stop4" />
   <stop
   offset="1"
   style="stop-opacity:1; stop-color:#FEFEFE"
   id="stop6" />
  </linearGradient>
  <linearGradient
   id="id1"
   gradientUnits="userSpaceOnUse"
   xlink:href="#id0"
   x1="8467"
   y1="15751"
   x2="8467"
   y2="16425">
  </linearGradient>
  <linearGradient
   id="id2"
   gradientUnits="objectBoundingBox"
   x1="1.04597"
   y1="0.114451"
   x2="1.04597"
   y2="0.98283094">
   <stop
   offset="0"
   style="stop-opacity:1; stop-color:#FFA147"
   id="stop10" />
   <stop
   offset="1"
   style="stop-opacity:1; stop-color:#E74226"
   id="stop12" />
  </linearGradient>
  <linearGradient
   id="id3"
   gradientUnits="userSpaceOnUse"
   xlink:href="#id2"
   x1="25714"
   y1="4893"
   x2="25714"
   y2="16688">
  </linearGradient>
  <linearGradient
   id="id4"
   gradientUnits="userSpaceOnUse"
   xlink:href="#id2"
   x1="12010"
   y1="2745"
   x2="12010"
   y2="14540">
  </linearGradient>
 <linearGradient
   inkscape:collect="always"
   xlink:href="#id0"
   id="linearGradient7755"
   gradientUnits="userSpaceOnUse"
   x1="22171"
   y1="17898"
   x2="22171"
   y2="18572" /></defs>
 <g
   inkscape:groupmode="layer"
   id="layer2"
   inkscape:label="Layer 2"
   transform="translate(-14662.329,-15532)"><g
     id="_2397405978704"
     style="clip-rule:evenodd;fill-rule:evenodd;image-rendering:optimizeQuality;shape-rendering:geometricPrecision;text-rendering:geometricPrecision">
   <path
   class="fil35"
   d="m 26506,18148 c 86,-62 190,-96 302,-96 391,0 781,0 1172,0 220,0 412,135 487,343 17,47 33,95 48,143 53,159 26,329 -72,465 -99,136 -250,214 -419,214 -393,0 -787,0 -1180,0 -69,0 -134,-11 -195,-34 -95,124 -245,201 -410,201 -212,0 -424,0 -636,0 -150,0 -286,-61 -385,-173 -33,-37 -61,-78 -84,-122 -295,0 -590,0 -885,0 -84,0 -164,-19 -236,-56 -137,64 -288,96 -441,96 -65,0 -130,0 -196,0 -156,0 -311,-33 -453,-97 -72,37 -152,56 -235,56 -199,0 -399,0 -598,0 -52,0 -103,-8 -151,-22 -49,15 -100,22 -151,22 -199,0 -398,0 -597,0 -29,0 -58,-2 -87,-7 -29,5 -58,7 -88,7 -372,0 -745,0 -1117,0 -84,0 -164,-19 -236,-56 -142,63 -298,96 -454,96 -65,0 -130,0 -196,0 -79,0 -159,-9 -236,-26 -187,389 -564,706 -1011,706 -190,0 -365,-51 -527,-148 -70,-42 -133,-90 -196,-141 -40,-32 -81,-68 -124,-95 -47,-29 -86,-41 -141,-41 -148,0 -283,-60 -381,-167 -339,0 -678,0 -1017,0 -168,0 -320,-77 -419,-214 -98,-136 -125,-305 -72,-465 16,-48 31,-96 48,-143 74,-208 266,-343 487,-343 374,0 748,0 1122,0 19,-75 38,-150 56,-226 3,-11 6,-24 9,-37 -15,-52 -22,-106 -21,-160 3,-132 55,-256 147,-349 9,-25 16,-54 21,-74 52,-208 104,-416 157,-624 9,-34 23,-90 29,-135 -51,-145 -36,-307 46,-441 13,-22 27,-43 42,-63 99,-134 249,-210 416,-210 182,0 363,0 545,0 229,0 426,148 493,361 56,0 111,0 167,0 78,0 154,17 223,50 133,-61 279,-94 427,-94 58,0 116,0 175,0 139,0 274,30 398,87 65,-28 136,-43 209,-43 333,0 667,0 1000,0 26,0 53,2 79,6 26,-4 52,-6 78,-6 179,0 357,0 536,0 47,0 92,6 136,18 44,-12 89,-18 135,-18 179,0 357,0 536,0 73,0 144,15 209,43 125,-57 262,-87 401,-87 49,0 98,0 147,0 146,0 289,33 420,93 68,-32 143,-49 221,-49 29,0 57,0 86,0 14,-44 34,-86 60,-126 97,-149 256,-235 433,-235 199,0 398,0 597,0 64,0 126,11 184,33 58,-22 120,-33 184,-33 199,0 398,0 597,0 207,0 388,118 472,307 14,31 24,62 33,94 49,172 5,355 -111,485 -8,41 -13,95 -15,126 -12,176 -28,351 -44,527 -10,111 -20,223 -32,334 51,80 78,174 79,272 1,57 -8,113 -25,166 2,10 5,20 6,28 6,25 12,51 18,76 z"
   id="path1144"
   style="fill:url(#id3)" />
   <path
   class="fil32"
   d="m 18559,18725 c 33,66 37,144 7,217 -134,318 -437,609 -800,609 -143,0 -272,-38 -395,-111 -217,-130 -316,-314 -594,-314 -86,0 -160,-38 -210,-108 -14,-19 -24,-39 -33,-59 -385,0 -770,0 -1155,0 -86,0 -159,-38 -209,-107 -50,-69 -63,-151 -36,-232 15,-46 30,-92 46,-137 37,-105 132,-171 243,-171 389,0 778,0 1167,0 54,0 104,15 146,44 0,-2 1,-4 1,-5 38,-153 76,-306 115,-459 7,-29 21,-87 24,-128 -19,-38 -29,-80 -28,-126 2,-81 39,-152 100,-198 25,-41 50,-130 60,-168 52,-208 104,-416 157,-623 13,-50 42,-177 41,-244 -44,-79 -45,-179 5,-261 9,-15 19,-30 29,-44 50,-68 123,-105 208,-105 182,0 363,0 545,0 129,0 237,93 255,220 12,48 11,96 -3,141 136,0 272,0 407,0 82,0 156,38 203,98 130,-89 285,-142 446,-142 58,0 116,0 175,0 156,0 298,51 410,136 49,-60 119,-92 198,-92 333,0 667,0 1000,0 28,0 54,4 79,12 24,-8 51,-12 78,-12 179,0 357,0 536,0 50,0 96,13 136,38 39,-24 86,-38 135,-38 179,0 357,0 536,0 79,0 149,34 197,90 115,-84 258,-134 413,-134 49,0 98,0 147,0 159,0 312,53 438,142 48,-61 121,-98 203,-98 114,0 228,0 341,0 0,0 0,-1 0,-1 0,-1 -1,-2 -1,-3 -34,-81 -26,-166 22,-240 49,-75 127,-117 217,-117 199,0 398,0 597,0 72,0 135,26 183,76 47,-49 112,-76 184,-76 199,0 398,0 597,0 104,0 194,58 236,154 9,19 14,38 20,58 30,104 -8,213 -89,276 -28,58 -42,196 -46,248 -12,174 -28,348 -43,522 -13,146 -27,292 -42,437 56,47 88,116 89,193 0,47 -11,91 -32,130 2,39 14,94 20,121 17,74 35,149 52,223 14,61 57,222 103,278 95,65 137,186 98,298 -28,115 -130,196 -251,196 -212,0 -424,0 -636,0 -76,0 -142,-29 -193,-86 -28,-31 -50,-68 -64,-107 -12,-34 -17,-68 -15,-101 -361,0 -722,0 -1083,0 -88,0 -164,-40 -213,-112 -126,96 -290,152 -464,152 -65,0 -130,0 -196,0 -172,0 -341,-53 -479,-147 -47,65 -124,107 -210,107 -199,0 -399,0 -598,0 -56,0 -109,-17 -151,-48 -43,31 -95,48 -151,48 -199,0 -398,0 -597,0 -31,0 -60,-5 -87,-15 -27,10 -57,15 -88,15 -372,0 -745,0 -1117,0 -86,0 -161,-39 -209,-106 -140,93 -309,146 -481,146 -65,0 -130,0 -196,0 -171,0 -330,-53 -453,-146 z m 8001,-83 c -24,-81 -10,-161 41,-228 50,-68 123,-104 207,-104 391,0 781,0 1172,0 111,0 206,67 243,171 16,45 31,91 46,137 27,81 14,163 -36,232 -50,69 -124,107 -209,107 -393,0 -787,0 -1180,0 -209,0 -238,-162 -284,-316 z"
   id="path1146" />
   <path
   class="fil33"
   d="m 15380,18700 c 390,0 782,0 1175,0 12,-44 23,-87 37,-131 -390,0 -780,0 -1167,0 -16,44 -30,88 -44,131 z m 11464,0 c 391,0 785,0 1180,0 -14,-44 -29,-87 -44,-131 -392,0 -782,0 -1172,0 13,44 25,88 37,131 z m -1328,-2424 c 0,0 100,117 83,412 -10,171 -27,340 -43,510 -94,-170 -188,-338 -274,-510 -146,-294 -98,-412 -98,-412 -8,-9 -17,-17 -25,-26 -199,0 -399,0 -597,0 4,9 7,17 9,26 0,0 136,44 334,434 88,173 178,346 269,518 91,172 185,345 280,517 3,117 -35,138 -35,138 0,0 82,33 140,306 16,74 30,149 46,223 79,379 -14,434 -14,434 3,7 7,15 13,22 211,0 424,0 636,0 1,-7 4,-15 7,-22 0,0 -121,-55 -209,-434 -17,-74 -35,-148 -52,-223 -64,-273 5,-306 5,-306 0,0 -47,-22 -96,-138 18,-172 36,-345 51,-517 15,-172 31,-345 43,-518 27,-390 145,-434 145,-434 -3,-9 -4,-17 -8,-26 -199,0 -399,0 -597,0 -4,9 -8,17 -12,26 z m -6858,357 c -1,-7 -3,-14 -4,-22 -179,0 -359,0 -536,0 -3,7 -7,15 -10,22 0,0 78,51 3,411 -17,84 -34,168 -51,251 -54,262 -133,295 -133,295 0,0 65,33 10,295 -17,84 -34,168 -51,251 -75,364 -185,411 -185,411 0,9 1,17 3,26 198,0 398,0 597,0 4,-9 8,-17 14,-26 0,0 -93,-47 -25,-411 16,-84 30,-167 46,-251 48,-262 126,-295 126,-295 0,0 -65,-33 -17,-295 15,-84 31,-167 47,-251 67,-360 166,-411 166,-411 z m 1194,677 c 10,-99 21,-199 31,-298 26,-244 -154,-444 -405,-444 -59,0 -117,0 -175,0 -253,0 -489,200 -531,444 -20,114 -37,228 -59,342 -40,207 -111,236 -111,236 0,0 62,29 31,237 -17,114 -39,228 -59,342 -42,248 154,444 437,444 65,0 130,0 196,0 283,0 529,-196 554,-444 9,-85 18,-170 27,-255 -128,-42 -256,-85 -382,-127 -17,143 -36,287 -53,430 -10,76 -91,142 -177,142 -21,0 -42,0 -61,0 -90,0 -151,-65 -139,-142 17,-110 32,-221 48,-331 39,-262 113,-295 113,-295 0,0 -65,-32 -26,-295 16,-109 32,-218 48,-328 12,-80 85,-146 168,-146 18,0 37,0 56,0 80,0 137,66 128,146 -9,72 -18,143 -27,215 121,43 245,85 368,127 z m 734,-444 c 377,0 412,91 412,91 8,-4 17,-7 26,-11 21,-111 40,-223 61,-335 -334,0 -668,0 -1000,0 -5,7 -9,15 -13,22 0,0 85,51 52,411 -8,84 -15,168 -22,251 -24,262 -99,295 -99,295 0,0 68,33 44,295 -8,84 -15,168 -22,251 -33,364 -137,411 -137,411 3,9 5,17 9,26 372,0 744,0 1117,0 -16,-113 -29,-225 -42,-338 -9,-2 -20,-5 -27,-7 0,0 -46,87 -454,87 -25,0 -50,0 -74,0 17,-235 33,-471 50,-706 355,4 390,87 390,87 8,-2 16,-5 25,-7 21,-113 43,-225 65,-338 -155,0 -309,0 -463,0 12,-161 22,-323 34,-484 22,0 46,0 68,0 z m 2008,-233 c -4,-7 -7,-14 -9,-22 -179,0 -357,0 -536,0 -1,7 -4,15 -7,22 0,0 90,51 99,411 4,154 9,308 12,462 -74,-142 -149,-284 -220,-426 0,0 0,0 0,0 -196,-389 -136,-448 -136,-448 -7,-7 -13,-14 -20,-22 -179,0 -357,0 -536,0 -1,7 -4,15 -7,22 0,0 87,51 78,411 -2,84 -2,168 -4,251 -6,262 -78,295 -78,295 0,0 70,33 64,295 -2,84 -3,168 -5,251 -8,364 -108,411 -108,411 3,9 5,17 8,26 198,0 398,0 597,0 3,-9 5,-17 9,-26 0,0 -99,-47 -100,-411 0,-136 0,-273 0,-409 0,-136 0,-273 0,-410 76,151 153,302 232,452 79,151 162,301 245,451 -9,288 -91,327 -91,327 3,9 5,17 8,26 198,0 398,0 598,0 1,-9 4,-17 7,-26 0,0 -101,-47 -119,-411 -4,-84 -8,-167 -12,-251 -12,-262 56,-295 56,-295 0,0 -72,-33 -83,-295 -4,-84 -9,-167 -13,-251 -17,-360 70,-411 70,-411 z m 1201,1045 c 1,0 1,0 4,0 -4,-3 -4,-3 -8,-7 -32,-36 -75,-67 -106,-98 -101,-103 -87,-149 -87,-149 0,0 -75,25 -283,-156 -96,-84 -161,-175 -169,-273 -1,-8 -1,-17 -1,-26 -7,-80 51,-146 133,-146 9,0 18,0 27,0 82,0 158,66 166,146 5,57 12,114 18,171 130,44 262,88 395,131 -10,-86 -22,-172 -33,-258 -31,-244 -259,-444 -508,-444 -48,0 -98,0 -147,0 -253,0 -445,200 -429,444 1,15 2,29 3,44 9,146 106,269 227,382 0,0 0,0 0,0 0,0 0,0 0,0 12,11 27,24 42,37 171,154 154,215 154,215 0,0 74,-25 282,164 89,81 133,178 145,288 3,26 7,51 9,76 8,76 -60,142 -146,142 -21,0 -42,0 -63,0 -89,0 -165,-65 -171,-142 -11,-130 -21,-260 -31,-389 -132,44 -262,88 -392,131 5,70 9,141 13,211 15,248 257,444 540,444 65,0 130,0 196,0 283,0 482,-197 451,-444 -4,-30 -8,-61 -12,-91 -20,-156 -103,-288 -216,-400 z m 1400,550 c 0,0 -29,87 -433,87 -18,0 -34,0 -50,0 -23,-143 -47,-286 -70,-430 -42,-262 25,-295 25,-295 0,0 -76,-33 -119,-295 -14,-84 -28,-167 -42,-251 -58,-360 23,-411 23,-411 -4,-7 -8,-14 -10,-22 -179,0 -359,0 -536,0 -3,7 -4,15 -5,22 0,0 97,51 147,411 12,84 24,168 35,251 37,262 -30,295 -30,295 0,0 76,33 112,295 12,84 24,168 35,251 51,364 -43,411 -43,411 4,9 8,17 13,26 362,0 727,0 1091,0 -40,-113 -80,-225 -119,-338 -9,-2 -17,-5 -26,-7 z m -7834,425 c 53,-233 107,-466 160,-699 64,-277 150,-310 150,-310 0,0 -70,-36 -8,-310 47,-207 94,-415 142,-623 88,-383 194,-434 194,-434 -3,-9 -4,-17 -5,-26 -183,0 -364,0 -545,0 -7,9 -12,17 -17,26 0,0 82,51 -16,434 -53,208 -104,415 -156,623 -69,274 -153,310 -153,310 0,0 66,33 -4,310 -38,153 -77,307 -115,459 -95,379 -219,434 -219,434 3,7 3,15 8,22 521,0 592,425 988,425 372,0 562,-451 562,-451 -12,-7 -22,-15 -34,-22 -256,218 -641,-48 -933,-168 z"
   id="path1148" />
   <path
   class="fil36"
   d="m 25901,17896 c -32,-39 -57,-88 -72,-124 l -7,-17 2,-18 c 4,-34 7,-68 11,-102 h -361 c 14,25 28,50 42,76 l 8,15 v 17 c 1,36 -2,84 -16,126 65,83 104,233 119,306 16,74 30,149 46,223 24,115 48,271 23,388 -1,4 -2,8 -3,12 138,0 277,0 415,0 -68,-107 -111,-249 -139,-370 -17,-74 -35,-148 -52,-223 -20,-84 -40,-200 -22,-286 2,-8 4,-15 6,-23 z m -7878,-261 c 16,90 -6,207 -18,264 -17,84 -34,168 -51,251 -24,114 -60,250 -122,352 126,0 252,0 378,0 -1,-3 -1,-5 -2,-8 -28,-111 -8,-261 13,-372 16,-84 30,-168 46,-251 10,-56 33,-157 72,-237 h -316 z m 681,0 c 14,64 8,140 -1,201 -17,115 -39,229 -59,344 -11,66 -2,133 30,192 67,120 206,171 337,171 65,0 130,0 196,0 191,0 394,-108 464,-294 11,-28 18,-58 21,-88 7,-66 14,-133 21,-199 -82,-27 -165,-55 -247,-82 -14,115 -29,230 -43,345 -15,118 -132,203 -247,203 -20,0 -41,0 -61,0 -123,0 -228,-95 -209,-222 17,-110 32,-221 48,-331 8,-56 27,-158 64,-239 h -314 z m 1402,0 c 23,87 16,199 11,256 -8,84 -15,168 -22,251 -10,114 -32,256 -84,360 308,0 616,0 924,0 -7,-57 -14,-115 -21,-172 -129,51 -343,54 -422,54 -25,0 -50,0 -74,0 h -75 l 5,-75 c 16,-225 31,-449 47,-674 z m 2119,0 3,165 -86,-165 h -205 c 17,34 35,67 53,101 79,151 162,301 244,450 l 9,17 -1,19 c -3,88 -13,196 -47,281 127,0 253,0 380,0 -49,-106 -64,-249 -70,-363 -4,-84 -8,-168 -12,-252 -3,-57 -4,-167 21,-253 z m -886,0 c 27,85 28,194 26,251 -2,84 -3,168 -5,251 -3,114 -14,259 -61,365 127,0 254,0 381,0 -45,-107 -54,-252 -54,-366 0,-136 0,-273 0,-409 v -92 z m 1944,0 c 92,38 191,123 237,165 98,89 153,201 167,332 3,26 7,51 9,77 3,31 -1,62 -13,91 -34,81 -117,128 -202,128 -21,0 -42,0 -63,0 -117,0 -231,-86 -241,-206 -8,-100 -16,-200 -24,-301 -85,29 -171,57 -256,86 3,52 6,105 9,157 2,36 10,71 23,104 70,176 264,275 447,275 65,0 130,0 196,0 136,0 278,-54 347,-178 32,-58 43,-122 35,-188 -4,-30 -8,-61 -12,-91 -18,-142 -96,-260 -196,-360 l -66,-66 c -10,-8 -20,-17 -29,-26 h -367 z m 1896,691 c -123,57 -341,58 -417,58 -17,0 -33,0 -50,0 h -59 l -10,-59 c -24,-143 -47,-287 -70,-430 -9,-57 -24,-172 -6,-261 h -317 c 36,81 54,184 62,240 12,84 23,168 35,251 16,112 28,261 -4,371 0,2 -1,3 -2,5 299,0 599,0 898,0 -21,-59 -41,-117 -62,-176 z m -7966,-691 c -6,8 -11,16 -17,23 27,98 -8,249 -24,312 -38,153 -76,306 -115,459 -31,124 -78,270 -152,377 122,17 232,60 342,133 54,36 105,78 155,119 44,36 89,72 138,101 72,43 142,65 226,65 151,0 273,-88 366,-199 17,-20 34,-42 50,-66 -4,1 -8,2 -13,3 -273,67 -590,-143 -836,-244 l -55,-23 13,-58 c 53,-233 107,-466 160,-699 21,-93 54,-203 109,-283 4,-6 9,-13 14,-19 h -363 z"
   id="path1150"
   style="fill:url(#linearGradient7755)" />
  </g></g>
</svg>
